#N canvas 391 483 570 400 10;
#X obj 344 15 r s_hue_1;
#X obj 488 15 r s_val_1;
#X obj 415 15 r s_sat_1;
#X obj 279 15 r s_on_1;
#X obj 146 209 sg r_on_1;
#X obj 216 209 sg r_hue_1;
#X obj 292 209 sg r_sat_1;
#X obj 371 209 sg r_val_1;
#X obj 279 36 rg;
#X obj 344 36 rg;
#X obj 415 36 rg;
#X obj 488 36 rg;
#X obj 17 107 loadbang;
#X text 83 209 Feedback;
#X text 218 14 Commands;
#X text 17 75 Auslesen beim Startup, f 13;
#X obj 17 128 bulb bulb-name server-name 8081;
#X obj 450 209 sg r_on_1;
#X connect 0 0 9 0;
#X connect 1 0 11 0;
#X connect 2 0 10 0;
#X connect 3 0 8 0;
#X connect 8 0 16 1;
#X connect 8 1 4 1;
#X connect 9 0 16 2;
#X connect 9 1 5 1;
#X connect 10 0 16 3;
#X connect 10 1 6 1;
#X connect 11 0 16 4;
#X connect 11 1 7 1;
#X connect 12 0 16 0;
#X connect 16 0 4 0;
#X connect 16 1 5 0;
#X connect 16 2 6 0;
#X connect 16 3 7 0;
#X connect 16 4 17 0;
