#N canvas 333 175 600 504 10;
#X obj 344 15 r s_hue_1;
#X obj 488 15 r s_val_1;
#X obj 415 15 r s_sat_1;
#X obj 279 15 r s_on_1;
#X obj 146 209 sg r_on_1;
#X obj 216 209 sg r_hue_1;
#X obj 292 209 sg r_sat_1;
#X obj 371 209 sg r_val_1;
#X obj 279 36 rg;
#X obj 344 36 rg;
#X obj 415 36 rg;
#X obj 488 36 rg;
#X obj 17 79 loadbang;
#X text 83 209 Feedback;
#X text 218 14 Commands;
#X text 17 47 Auslesen beim Startup, f 13;
#X obj 17 128 bulb bulb-name server-name 8081;
#X obj 79 518 r s_hue_1;
#X obj 223 518 r s_val_1;
#X obj 150 518 r s_sat_1;
#X obj 14 518 r s_on_1;
#X obj 51 365 r get_bulb_1;
#X obj 51 391 t b b b b;
#X msg 68 418 r_hue_1;
#X msg 131 418 r_sat_1;
#X msg 197 417 r_val_1;
#X obj 68 450 s get_values;
#X obj 118 548 s value;
#X text 9 299 Preset-Werte auslesen;
#X obj 262 362 r s_on_1;
#X obj 263 417 float;
#X obj 263 389 r f_on_1;
#X msg 9 418 f_on_1;
#X obj 263 442 s r_on_1;
#X text 329 358 Toggle toggelt auf bang \, daher die Werte in f_on_1
zwischenspeichern \, um wie slider und radio auf bang nur den Wert
auszugeben., f 38;
#X text 12 495 Auf Bang ausgegebene Ist-Werte sammeln und an value
senden.;
#X msg 17 103 bang;
#X obj 450 209 s r_on_1;
#X text 451 227 color;
#X text 8 324 Generiere Namens-Messages für jedes einzelne anzubangende
receive \, das danach den gespeicherten Wert erhalten soll.;
#X connect 0 0 9 0;
#X connect 1 0 11 0;
#X connect 2 0 10 0;
#X connect 3 0 8 0;
#X connect 8 0 16 1;
#X connect 8 1 4 1;
#X connect 9 0 16 2;
#X connect 9 1 5 1;
#X connect 10 0 16 3;
#X connect 10 1 6 1;
#X connect 11 0 16 4;
#X connect 11 1 7 1;
#X connect 12 0 36 0;
#X connect 16 0 4 0;
#X connect 16 1 5 0;
#X connect 16 2 6 0;
#X connect 16 3 7 0;
#X connect 16 4 37 0;
#X connect 17 0 27 0;
#X connect 18 0 27 0;
#X connect 19 0 27 0;
#X connect 20 0 27 0;
#X connect 21 0 22 0;
#X connect 22 0 32 0;
#X connect 22 1 23 0;
#X connect 22 2 24 0;
#X connect 22 3 25 0;
#X connect 23 0 26 0;
#X connect 24 0 26 0;
#X connect 25 0 26 0;
#X connect 29 0 30 1;
#X connect 30 0 33 0;
#X connect 31 0 30 0;
#X connect 32 0 26 0;
#X connect 36 0 16 0;
