#N canvas 524 330 562 468 10;
#X obj 11 46 r s_wave_1;
#X obj 90 46 r s_freq_1;
#X obj 170 45 r s_lo_1;
#X obj 235 45 r s_hi_1;
#X obj 300 44 r s_mod_1;
#X msg 97 279 0.2;
#X msg 243 281 1;
#X obj 18 313 s r_wave_1;
#X obj 98 314 s r_freq_1;
#X obj 176 314 s r_lo_1;
#X obj 243 314 s r_hi_1;
#X obj 310 314 s r_mod_1;
#X obj 217 110 >;
#X obj 170 137 spigot;
#X obj 170 111 float;
#X obj 255 136 spigot;
#X obj 255 84 t f f;
#X obj 255 110 float;
#X obj 302 109 <;
#X obj 169 165 s r_hi_1;
#X obj 255 163 s r_lo_1;
#X obj 170 85 t b f;
#X msg 310 282 0.5;
#X obj 176 244 bng 15 250 50 0 empty empty empty 17 7 0 10 -262144
-1 -1;
#X obj 176 217 loadbang;
#X obj 104 390 r s_target1_1;
#X obj 206 389 r s_target2_1;
#X obj 17 427 targets_r_s;
#X text 19 199 Initialisierung auf neutrale Werte;
#X msg 18 282 0;
#X msg 176 278 0;
#X text 19 365 Senden des LFO-Signatls durch die Gate 1..8 fürs target
;
#X obj 87 128 lfo;
#X text 301 83 Optional: Überschneiden unterbinden;
#X obj 87 166 s \$0_lfo_1;
#X obj 17 392 r \$0_lfo_1;
#X text 11 9 Verbindet das 1lfo.pd GUI mit einem lfo.pd Oszillator-Patch
;
#X connect 0 0 32 0;
#X connect 1 0 32 1;
#X connect 2 0 18 1;
#X connect 2 0 21 0;
#X connect 2 0 32 2;
#X connect 3 0 12 1;
#X connect 3 0 16 0;
#X connect 3 0 32 3;
#X connect 4 0 32 4;
#X connect 5 0 8 0;
#X connect 6 0 10 0;
#X connect 12 0 13 1;
#X connect 13 0 19 0;
#X connect 14 0 13 0;
#X connect 15 0 20 0;
#X connect 16 0 17 0;
#X connect 16 1 17 1;
#X connect 16 1 18 0;
#X connect 17 0 15 0;
#X connect 18 0 15 1;
#X connect 21 0 14 0;
#X connect 21 1 14 1;
#X connect 21 1 12 0;
#X connect 22 0 11 0;
#X connect 23 0 7 0;
#X connect 23 0 5 0;
#X connect 23 0 6 0;
#X connect 23 0 22 0;
#X connect 23 0 30 0;
#X connect 23 0 29 0;
#X connect 24 0 23 0;
#X connect 25 0 27 1;
#X connect 26 0 27 2;
#X connect 29 0 7 0;
#X connect 30 0 9 0;
#X connect 32 0 34 0;
#X connect 35 0 27 0;
