#N canvas 149 224 189 166 10;
#X obj 22 14 vradio 20 1 0 5 s_wave_1 r_wave_1 empty 0 -8 0 10 -262144
-1 -1 0;
#X text 0 57 Tri;
#X text 0 37 Sin;
#X text 0 95 Aud;
#X text 0 76 Rec;
#X text 0 19 Off;
#X obj 2 117 hradio 20 1 0 9 s_target1_1 r_target1_1 empty 0 -8 0 10
-262144 -1 -1 0;
#X obj 2 141 hradio 20 1 0 9 s_target2_1 r_target2_1 empty 0 -8 0 10
-262144 -1 -1 4;
#X obj 52 14 vsl 24 101 0 1 0 0 s_freq_1 r_freq_1 Frq 0 -6 0 10 -222484
-1 -1 0 1;
#X obj 86 15 vsl 24 101 0 1 0 0 s_lo_1 r_lo_1 Lo 0 -6 0 10 -87927 -1
-1 0 1;
#X obj 122 14 vsl 24 101 0 1 0 0 s_hi_1 r_hi_1 Hi 0 -6 0 10 -93240
-1 -1 0 1;
#X obj 158 14 vsl 24 101 0 1 0 0 s_mod_1 r_mod_1 Mod 0 -6 0 10 -97176
-1 -1 0 1;
