#N canvas 603 469 546 401 10;
#X obj 11 46 r s_wave_1;
#X obj 90 46 r s_freq_1;
#X obj 170 45 r s_lo_1;
#X obj 235 45 r s_hi_1;
#X obj 300 44 r s_mod_1;
#X msg 100 314 0.2;
#X msg 246 316 1;
#X obj 21 348 s r_wave_1;
#X obj 101 349 s r_freq_1;
#X obj 179 349 s r_lo_1;
#X obj 246 349 s r_hi_1;
#X obj 313 349 s r_mod_1;
#X obj 217 110 >;
#X text 310 76 Überschneiden unterbinden;
#X obj 170 137 spigot;
#X obj 170 111 float;
#X obj 255 136 spigot;
#X obj 255 84 t f f;
#X obj 255 110 float;
#X obj 302 109 <;
#X obj 169 165 s r_hi_1;
#X obj 255 163 s r_lo_1;
#X obj 170 85 t b f;
#X msg 313 317 0.5;
#X obj 179 279 bng 15 250 50 0 empty empty empty 17 7 0 10 -262144
-1 -1;
#X obj 179 252 loadbang;
#X obj 20 427 r \$0-lfo;
#X obj 90 166 s \$0-lfo;
#X obj 88 425 r s_target1_1;
#X obj 190 424 r s_target2_1;
#X obj 17 165 s r_lfo_1;
#X obj 20 462 targets_r_s;
#X text 22 234 Initialisierung auf neutrale Werte;
#X msg 21 317 0;
#X msg 179 313 0;
#X text 22 400 Senden des LFO-Signatls durch die Gate 1..8 fürs target
;
#X obj 87 128 lfo;
#X text 11 9 Verbindet das 1lfo.pd GUI mit einem lfp.pd Oszillator-Patch
;
#X connect 0 0 36 0;
#X connect 1 0 36 1;
#X connect 2 0 19 1;
#X connect 2 0 22 0;
#X connect 2 0 36 2;
#X connect 3 0 12 1;
#X connect 3 0 17 0;
#X connect 3 0 36 3;
#X connect 4 0 36 4;
#X connect 5 0 8 0;
#X connect 6 0 10 0;
#X connect 12 0 14 1;
#X connect 14 0 20 0;
#X connect 15 0 14 0;
#X connect 16 0 21 0;
#X connect 17 0 18 0;
#X connect 17 1 18 1;
#X connect 17 1 19 0;
#X connect 18 0 16 0;
#X connect 19 0 16 1;
#X connect 22 0 15 0;
#X connect 22 1 15 1;
#X connect 22 1 12 0;
#X connect 23 0 11 0;
#X connect 24 0 7 0;
#X connect 24 0 5 0;
#X connect 24 0 6 0;
#X connect 24 0 23 0;
#X connect 24 0 34 0;
#X connect 24 0 33 0;
#X connect 25 0 24 0;
#X connect 26 0 31 0;
#X connect 28 0 31 1;
#X connect 29 0 31 2;
#X connect 33 0 7 0;
#X connect 34 0 9 0;
#X connect 36 0 27 0;
#X connect 36 0 30 0;
