#N canvas 580 35 593 775 10;
#X obj 11 46 r s_wave_1;
#X obj 90 46 r s_freq_1;
#X obj 170 45 r s_lo_1;
#X obj 235 45 r s_hi_1;
#X obj 300 44 r s_mod_1;
#X msg 97 279 0.2;
#X msg 243 281 1;
#X obj 18 313 s r_wave_1;
#X obj 98 314 s r_freq_1;
#X obj 176 314 s r_lo_1;
#X obj 243 314 s r_hi_1;
#X obj 310 314 s r_mod_1;
#X obj 217 110 >;
#X obj 170 137 spigot;
#X obj 170 111 float;
#X obj 255 136 spigot;
#X obj 255 84 t f f;
#X obj 255 110 float;
#X obj 302 109 <;
#X obj 169 165 s r_hi_1;
#X obj 255 163 s r_lo_1;
#X obj 170 85 t b f;
#X msg 310 282 0.5;
#X obj 176 244 bng 15 250 50 0 empty empty empty 17 7 0 10 -262144
-1 -1;
#X obj 176 217 loadbang;
#X obj 104 390 r s_target1_1;
#X obj 206 389 r s_target2_1;
#X obj 17 427 targets_r_s;
#X text 19 199 Initialisierung auf neutrale Werte;
#X msg 18 282 0;
#X msg 176 278 0;
#X text 19 365 Senden des LFO-Signatls durch die Gate 1..8 fürs target
;
#X obj 87 128 lfo;
#X text 301 83 Optional: Überschneiden unterbinden;
#X obj 87 166 s \$0_lfo_1;
#X obj 17 392 r \$0_lfo_1;
#X text 11 9 Verbindet das 1lfo.pd GUI mit einem lfo.pd Oszillator-Patch
;
#X obj 7 765 r s_wave_1;
#X obj 86 765 r s_freq_1;
#X obj 166 764 r s_lo_1;
#X obj 231 764 r s_hi_1;
#X obj 296 763 r s_mod_1;
#X obj 135 576 r get_lfo_1;
#X msg 6 647 r_wave_1;
#X msg 86 648 r_freq_1;
#X msg 164 647 r_lo_1;
#X msg 232 646 r_hi_1;
#X msg 300 646 r_mod_1;
#X obj 164 693 s get_values;
#X obj 165 814 s value;
#X text 8 501 Preset-Werte auslesen;
#X obj 365 763 r s_target1_1;
#X obj 461 763 r s_target2_1;
#X obj 135 605 t b b b b b b b;
#X msg 366 647 r_target1_1;
#X msg 456 646 r_target2_1;
#X text 7 534 Generiere Namens-Messages für jedes einzelne anzubangende
receive \, das danach den gespeichertn Wert erhalten soll.;
#X text 5 739 Auf Bang ausgegebene Ist-Werte sammeln und an value senden.
;
#X connect 0 0 32 0;
#X connect 1 0 32 1;
#X connect 2 0 18 1;
#X connect 2 0 21 0;
#X connect 2 0 32 2;
#X connect 3 0 12 1;
#X connect 3 0 16 0;
#X connect 3 0 32 3;
#X connect 4 0 32 4;
#X connect 5 0 8 0;
#X connect 6 0 10 0;
#X connect 12 0 13 1;
#X connect 13 0 19 0;
#X connect 14 0 13 0;
#X connect 15 0 20 0;
#X connect 16 0 17 0;
#X connect 16 1 17 1;
#X connect 16 1 18 0;
#X connect 17 0 15 0;
#X connect 18 0 15 1;
#X connect 21 0 14 0;
#X connect 21 1 14 1;
#X connect 21 1 12 0;
#X connect 22 0 11 0;
#X connect 23 0 7 0;
#X connect 23 0 5 0;
#X connect 23 0 6 0;
#X connect 23 0 22 0;
#X connect 23 0 30 0;
#X connect 23 0 29 0;
#X connect 24 0 23 0;
#X connect 25 0 27 1;
#X connect 26 0 27 2;
#X connect 29 0 7 0;
#X connect 30 0 9 0;
#X connect 32 0 34 0;
#X connect 35 0 27 0;
#X connect 37 0 49 0;
#X connect 38 0 49 0;
#X connect 39 0 49 0;
#X connect 40 0 49 0;
#X connect 41 0 49 0;
#X connect 42 0 53 0;
#X connect 43 0 48 0;
#X connect 44 0 48 0;
#X connect 45 0 48 0;
#X connect 46 0 48 0;
#X connect 47 0 48 0;
#X connect 51 0 49 0;
#X connect 52 0 49 0;
#X connect 53 0 43 0;
#X connect 53 1 44 0;
#X connect 53 2 45 0;
#X connect 53 3 46 0;
#X connect 53 4 47 0;
#X connect 53 5 54 0;
#X connect 53 6 55 0;
#X connect 54 0 48 0;
#X connect 55 0 48 0;
