#N canvas 573 500 666 243 10;
#X obj 20 71 inlet;
#X obj 279 73 inlet;
#X obj 19 157 spigot 0;
#X obj 85 157 spigot 0;
#X obj 217 156 spigot 0;
#X obj 151 157 spigot 0;
#X obj 50 120 == 1;
#X obj 110 120 == 2;
#X obj 177 121 == 3;
#X obj 241 121 == 4;
#X obj 133 214 outlet;
#X obj 85 71 inlet;
#X obj 150 72 inlet;
#X obj 216 74 inlet;
#X text 11 8 Rechtes Inlet 1..4 wählt das Eingangs-Inlet \, das ins
Outlet geleitet wird.;
#X connect 0 0 2 0;
#X connect 1 0 9 0;
#X connect 1 0 8 0;
#X connect 1 0 7 0;
#X connect 1 0 6 0;
#X connect 2 0 10 0;
#X connect 3 0 10 0;
#X connect 4 0 10 0;
#X connect 5 0 10 0;
#X connect 6 0 2 1;
#X connect 7 0 3 1;
#X connect 8 0 5 1;
#X connect 9 0 4 1;
#X connect 11 0 3 0;
#X connect 12 0 5 0;
#X connect 13 0 4 0;
