#N canvas 501 466 568 276 10;
#X obj 22 14 vradio 20 1 0 5 s_wave_1 r_wave_1 empty 0 -8 0 10 -262144
-1 -1 0;
#X text 0 57 Tri;
#X text 0 37 Sin;
#X text 0 95 Aud;
#X text 0 76 Rec;
#X text 0 19 Off;
#X obj 2 117 hradio 20 1 0 9 s_target1_1 r_target1_1 empty 0 -8 0 10
-262144 -1 -1 0;
#X obj 2 141 hradio 20 1 0 9 s_target2_1 r_target2_1 empty 0 -8 0 10
-262144 -1 -1 4;
#X obj 51 14 vsl 24 101 0 1 0 0 s_freq_1 r_freq_1 Frq 0 -6 0 10 -222484
-1 -1 2000 1;
#X obj 86 15 vsl 24 101 0 1 0 0 s_lo_1 r_lo_1 Lo 0 -6 0 10 -87927 -1
-1 0 1;
#X obj 122 14 vsl 24 101 0 1 0 0 s_hi_1 r_hi_1 Hi 0 -6 0 10 -93240
-1 -1 10000 1;
#X obj 158 14 vsl 24 101 0 1 0 0 s_mod_1 r_mod_1 Mod 0 -6 0 10 -97176
-1 -1 5000 1;
#X obj 213 14 vradio 20 1 0 5 s_wave_2 r_wave_2 empty 0 -8 0 10 -262144
-1 -1 0;
#X obj 193 117 hradio 20 1 0 9 s_target1_2 r_target1_2 empty 0 -8 0
10 -262144 -1 -1 0;
#X obj 193 141 hradio 20 1 0 9 s_target2_2 r_target2_2 empty 0 -8 0
10 -262144 -1 -1 0;
#X obj 243 14 vsl 24 101 0 1 0 0 s_freq_2 r_freq_2 Frq 0 -6 0 10 -222484
-1 -1 2000 1;
#X obj 278 14 vsl 24 101 0 1 0 0 s_lo_2 r_lo_2 Lo 0 -6 0 10 -87927
-1 -1 0 1;
#X obj 313 14 vsl 24 101 0 1 0 0 s_hi_2 r_hi_2 Hi 0 -6 0 10 -93240
-1 -1 10000 1;
#X obj 349 14 vsl 24 101 0 1 0 0 s_mod_2 r_mod_2 Mod 0 -6 0 10 -97176
-1 -1 5000 1;
#X obj 405 15 vradio 20 1 0 5 s_wave_3 r_wave_3 empty 0 -8 0 10 -262144
-1 -1 0;
#X obj 385 118 hradio 20 1 0 9 s_target1_3 r_target1_3 empty 0 -8 0
10 -262144 -1 -1 6;
#X obj 385 141 hradio 20 1 0 9 s_target2_3 r_target2_3 empty 0 -8 0
10 -262144 -1 -1 6;
#X obj 436 15 vsl 24 101 0 1 0 0 s_freq_3 r_freq_3 Frq 0 -6 0 10 -222484
-1 -1 2000 1;
#X obj 471 15 vsl 24 101 0 1 0 0 s_lo_3 r_lo_3 Lo 0 -6 0 10 -87927
-1 -1 0 1;
#X obj 505 15 vsl 24 101 0 1 0 0 s_hi_3 r_hi_3 Hi 0 -6 0 10 -93240
-1 -1 10000 1;
#X obj 541 15 vsl 24 101 0 1 0 0 s_mod_3 r_mod_3 Mod 0 -6 0 10 -97176
-1 -1 5000 1;
#X obj 12 202 tgl 50 0 s_on_1 r_on_1 On/Off 0 -10 0 13 -248530 -355
-1 0 1;
#X obj 83 178 vsl 45 101 0 1 0 0 s_hue_1 r_hue_1 Hue 0 -10 0 13 -222484
-1 -1 6072 1;
#X obj 144 178 vsl 45 101 0 1 0 0 s_sat_1 r_sat_1 Sat 0 -10 0 13 -93240
-1 -1 9300 1;
#X obj 206 178 vsl 45 101 0 1 0 0 s_val_1 r_val_1 Val 0 -10 0 13 -55159
-1 -1 7900 1;
#X obj 315 202 tgl 50 0 s_on_2 r_on_2 On/Off 0 -10 0 13 -248530 -355
-1 1 1;
#X obj 384 178 vsl 45 101 0 1 0 0 s_hue_2 r_hue_2 Hue 0 -10 0 13 -222484
-1 -1 8468 1;
#X obj 447 178 vsl 45 101 0 1 0 0 s_sat_2 r_sat_2 Sat 0 -10 0 13 -93240
-1 -1 8100 1;
#X obj 510 178 vsl 45 101 0 1 0 0 s_val_2 r_val_2 Val 0 -10 0 13 -55159
-1 -1 8600 1;
#X text 191 57 Tri;
#X text 191 37 Sin;
#X text 191 95 Aud;
#X text 191 76 Rec;
#X text 191 19 Off;
#X text 383 58 Tri;
#X text 383 39 Sin;
#X text 383 97 Aud;
#X text 383 77 Rec;
#X text 383 20 Off;
#X obj 4 201 lfos_r_s;
#X obj 4 167 bulbs_r_s;
#X obj 276 174 vradio 21 1 0 5 s_preset_1 r_preset_1 Pres -5 -8 0 13
-262144 -1 -1 0;
#X text 266 198 1;
#X text 266 219 2;
#X text 266 241 3;
#X text 266 261 4;
#X obj 3 223 presets_r_s;
#X obj 2 256 tgl 20 0 empty r_view_localcontrol LocalCtrl 22 11 0 10
-262144 -1 -1 1 1;
