#N canvas 232 22 928 839 10;
#X obj 339 335 r s_hue_1;
#X obj 490 335 r s_val_1;
#X obj 414 336 r s_sat_1;
#X obj 271 335 r s_on_1;
#X obj 155 527 sg r_on_1;
#X obj 225 527 sg r_hue_1;
#X obj 301 527 sg r_sat_1;
#X obj 380 527 sg r_val_1;
#X text 95 526 Feedback;
#X text 210 334 Commands;
#X obj 340 597 r s_hue_2;
#X obj 493 597 r s_val_2;
#X obj 416 597 r s_sat_2;
#X obj 274 597 r s_on_2;
#X obj 146 787 sg r_on_2;
#X obj 216 787 sg r_hue_2;
#X obj 292 787 sg r_sat_2;
#X obj 371 787 sg r_val_2;
#X text 86 786 Feedback;
#X text 213 596 Commands;
#X obj 431 13 loadbang;
#X msg 728 55 color -1.5773e+07;
#X text 269 10 Konfiguration des globalen Speed-Limits bzw. Sendefrequenz
f端r kontinuierliche Werte. 40ms = 25Hz, f 25;
#X obj 431 67 s r_speedlim;
#X obj 494 41 nbx 2 14 10 99 0 1 s_speedlim r_speedlim Clx 0 -8 0 13
-262144 -1 -1 80 256;
#X obj 18 62 s netreceive;
#X text 17 9 Feedback-Kanal an die bulb-Objekte;
#X text 724 8 Initial-Farbe r端cksetzen \, da sie vpr dem Speichern
端berschrieben werden kann., f 28;
#X obj 18 398 loadbang;
#X text 18 366 Auslesen beim Startup, f 13;
#X msg 18 422 bang;
#X obj 21 661 loadbang;
#X text 21 629 Auslesen beim Startup, f 13;
#X msg 21 685 bang;
#X text 458 544 color;
#X text 448 804 color;
#X msg 431 40 80;
#X obj 130 177 loadbang;
#X msg 130 256 peer_ip;
#X text 187 170 Beim Hochstarten die (dynamische) peer_ip-Adresse ermitteln.
bulbs.py antwortet mit der iOS-Client-IP;
#X text 11 109 Client/Server-Receive-Kanal \, der peersend-Host ist
der Server \, nicht der iOS-Client \, der mit peer_ip automatisch ermittelt
wird., f 65;
#X obj 130 284 spigot 1;
#X obj 190 255 r get_peer_ip;
#X obj 130 205 delay 1000;
#X text 280 256 Als Peer-Server zu starten mit -send "get_peer_ip 0"
;
#X text 202 208 Warte das Abfragen der Bulb-Werte lokal ab;
#X obj 18 33 netreceive 8082;
#X obj 12 141 peerreceive 8083;
#X obj 271 356 rg s_on_1;
#X obj 339 356 rg s_hue_1;
#X obj 414 357 rg s_sat_1;
#X obj 490 356 rg s_val_1;
#X obj 274 618 rg s_on_2;
#X obj 416 618 rg s_sat_2;
#X obj 493 618 rg s_val_2;
#X msg 130 231 bang;
#X obj 340 618 rg s_hue_2;
#X obj 459 527 spg r_on_1;
#X obj 450 787 spg r_on_2;
#X obj 125 140 peersend dahomey 8083;
#X obj 18 448 bulb eingang dahomey 8081;
#X obj 21 710 bulb mitte dahomey 8081;
#X msg 575 68 \; pd dsp 1 \;;
#X obj 575 41 loadbang;
#X text 571 10 Aktiviere LFOs gleich zu Beginn, f 18;
#X obj 728 84 s r_on_1;
#X obj 800 83 s r_on_2;
#X obj 656 149 r localcontrol;
#X obj 657 203 s r_view_localcontrol;
#X text 654 129 Indikator f端r local control toggeln;
#X obj 657 176 prepent set;
#X connect 0 0 49 0;
#X connect 1 0 51 0;
#X connect 2 0 50 0;
#X connect 3 0 48 0;
#X connect 10 0 56 0;
#X connect 11 0 54 0;
#X connect 12 0 53 0;
#X connect 13 0 52 0;
#X connect 20 0 36 0;
#X connect 21 0 65 0;
#X connect 21 0 66 0;
#X connect 28 0 30 0;
#X connect 30 0 60 0;
#X connect 31 0 33 0;
#X connect 33 0 61 0;
#X connect 36 0 23 0;
#X connect 37 0 43 0;
#X connect 38 0 41 0;
#X connect 41 0 60 0;
#X connect 42 0 41 1;
#X connect 43 0 55 0;
#X connect 46 0 25 0;
#X connect 48 0 60 1;
#X connect 48 1 4 1;
#X connect 49 0 60 2;
#X connect 49 1 5 1;
#X connect 50 0 60 3;
#X connect 50 1 6 1;
#X connect 51 0 60 4;
#X connect 51 1 7 1;
#X connect 52 0 61 1;
#X connect 52 1 14 1;
#X connect 53 0 61 3;
#X connect 53 1 16 1;
#X connect 54 0 61 4;
#X connect 54 1 17 1;
#X connect 55 0 38 0;
#X connect 56 0 61 2;
#X connect 56 1 15 1;
#X connect 60 0 4 0;
#X connect 60 1 5 0;
#X connect 60 2 6 0;
#X connect 60 3 7 0;
#X connect 60 4 57 0;
#X connect 61 0 14 0;
#X connect 61 1 15 0;
#X connect 61 2 16 0;
#X connect 61 3 17 0;
#X connect 61 4 58 0;
#X connect 63 0 62 0;
#X connect 67 0 70 0;
#X connect 70 0 68 0;
