#N canvas 280 128 909 720 10;
#X obj 111 547 netsend;
#X msg 25 518 disconnect;
#X obj 331 126 symbol \$1;
#X obj 331 95 loadbang;
#X msg 88 147 hue \$1;
#X msg 157 149 sat \$1;
#X msg 223 150 val \$1;
#X msg 29 148 on \$1;
#X obj 107 212 list prepend;
#X msg 106 278 send \$1 \$2 \$3;
#X obj 29 90 inlet;
#X obj 90 90 inlet;
#X obj 157 92 inlet;
#X obj 224 93 inlet;
#X obj 304 628 symbol;
#X obj 31 929 spigot 0;
#X msg 86 900 1;
#X obj 107 326 t anything bang;
#X text 76 760 Disconnecte bei EOF;
#X text 257 510 Connecte \, sende die Message und decode die Antwort
;
#X obj 101 1105 outlet;
#X obj 268 1106 outlet;
#X obj 423 1104 outlet;
#X obj 584 1100 outlet;
#X obj 196 927 spigot 0;
#X obj 353 929 spigot 0;
#X obj 512 934 spigot 0;
#X msg 251 899 1;
#X msg 405 903 1;
#X msg 562 904 1, f 5;
#X obj 442 902 r \$0-c;
#X obj 614 904 r \$0-c;
#X obj 29 1017 s \$0-c;
#X obj 196 1021 s \$0-c;
#X obj 353 1022 s \$0-c;
#X obj 513 1019 s \$0-c;
#X obj 289 897 r \$0-c;
#X obj 129 899 r \$0-c;
#X obj 120 687 s \$0-f;
#X obj 31 900 r \$0-f;
#X obj 197 901 r \$0-f;
#X obj 354 900 r \$0-f;
#X obj 512 903 r \$0-f;
#X text 12 6 Handle die Netzwerk-Kommunikation mit dem bulb.py Server.
Der Name der Abstraktion ist der Name der Bulb. Die vier Inlets erhalten
die neuen Werte on hue sat val \, die vier Outlets senden die abgeholten
Werte zurück.;
#X text 28 1043 s \$0-c schliesst alle gates nach Erhalt des float
;
#X obj 29 961 t bang float;
#X obj 195 963 t bang float;
#X obj 353 963 t bang float;
#X msg 29 990 0;
#X msg 195 990 0;
#X msg 353 991 0;
#X msg 513 989 0;
#X obj 512 960 t bang float;
#X obj 164 595 t bang anything anything;
#X msg 165 631 1;
#X msg 267 810 0;
#X obj 266 842 s \$0-block;
#X obj 204 631 r \$0-block;
#X obj 120 659 spigot 1;
#X text 161 688 Ausgelesener float;
#X obj 331 126 symbol \$1;
#X obj 331 95 loadbang;
#X obj 414 94 loadbang;
#X obj 413 126 symbol \$2;
#X text 332 66 Bulb;
#X text 415 66 Host;
#X text 500 70 Port;
#X obj 499 125 float \$3;
#X obj 500 93 loadbang;
#X msg 195 510 \$1 \$2 \$3;
#X msg 195 414 connect;
#X text 257 419 Erzeugt z.B. connect localhost 8081;
#X obj 111 581 == 0;
#X obj 195 383 spigot 1;
#X text 199 364 Nur wenn nicht schon connected:;
#X text 354 622 Zuerst das symbold decodieren \, aber Weiterleitung
des Symbols an float blockieren.;
#X obj 89 117 * 359;
#X obj 157 120 * 100;
#X obj 223 121 * 100;
#X obj 268 1076 / 359;
#X obj 422 1076 / 100;
#X obj 584 1072 / 100;
#X obj 209 760 sel eof on hue sat val rgb;
#X text 27 880 on;
#X text 194 877 hue;
#X text 350 879 sat;
#X text 510 879 val;
#X text 168 574 Reply der Bulb;
#X text 694 875 rgb;
#X obj 760 1101 outlet;
#X obj 195 443 list;
#X obj 195 477 list;
#X obj 691 934 spigot 0;
#X msg 741 904 1, f 5;
#X obj 793 904 r \$0-c;
#X obj 692 1019 s \$0-c;
#X obj 691 903 r \$0-f;
#X msg 692 989 0;
#X msg 760 1071 color \$1;
#X text 205 273 send bulb1 on 1 send bulb2 hue 359 send blub1 sat 50
send bulb1 0 ...;
#X text 18 371 zu bulb.py;
#X text 16 639 von bulb.py;
#X obj 691 960 t bang float;
#X obj 20 352 print out;
#X obj 17 622 print in;
#X obj 20 328 list trim;
#X obj 17 594 list trim;
#X obj 106 247 speedlim 200;
#X connect 0 0 72 0;
#X connect 0 1 53 0;
#X connect 1 0 0 0;
#X connect 2 0 8 1;
#X connect 3 0 2 0;
#X connect 4 0 8 0;
#X connect 5 0 8 0;
#X connect 6 0 8 0;
#X connect 7 0 8 0;
#X connect 8 0 107 0;
#X connect 9 0 17 0;
#X connect 10 0 7 0;
#X connect 11 0 76 0;
#X connect 12 0 77 0;
#X connect 13 0 78 0;
#X connect 14 0 82 0;
#X connect 15 0 45 0;
#X connect 16 0 15 1;
#X connect 17 0 0 0;
#X connect 17 1 73 0;
#X connect 24 0 46 0;
#X connect 25 0 47 0;
#X connect 26 0 52 0;
#X connect 27 0 24 1;
#X connect 28 0 25 1;
#X connect 29 0 26 1;
#X connect 30 0 25 1;
#X connect 31 0 26 1;
#X connect 36 0 24 1;
#X connect 37 0 15 1;
#X connect 39 0 15 0;
#X connect 40 0 24 0;
#X connect 41 0 25 0;
#X connect 42 0 26 0;
#X connect 45 0 48 0;
#X connect 45 1 20 0;
#X connect 46 0 49 0;
#X connect 46 1 79 0;
#X connect 47 0 50 0;
#X connect 47 1 80 0;
#X connect 48 0 32 0;
#X connect 49 0 33 0;
#X connect 50 0 34 0;
#X connect 51 0 35 0;
#X connect 52 0 51 0;
#X connect 52 1 81 0;
#X connect 53 0 54 0;
#X connect 53 1 58 0;
#X connect 53 2 14 0;
#X connect 54 0 58 1;
#X connect 55 0 56 0;
#X connect 57 0 58 1;
#X connect 58 0 38 0;
#X connect 61 0 60 0;
#X connect 62 0 63 0;
#X connect 63 0 90 1;
#X connect 67 0 91 1;
#X connect 68 0 67 0;
#X connect 69 0 0 0;
#X connect 70 0 90 0;
#X connect 72 0 73 1;
#X connect 73 0 70 0;
#X connect 76 0 4 0;
#X connect 77 0 5 0;
#X connect 78 0 6 0;
#X connect 79 0 21 0;
#X connect 80 0 22 0;
#X connect 81 0 23 0;
#X connect 82 0 1 0;
#X connect 82 1 16 0;
#X connect 82 1 55 0;
#X connect 82 2 27 0;
#X connect 82 2 55 0;
#X connect 82 3 28 0;
#X connect 82 3 55 0;
#X connect 82 4 29 0;
#X connect 82 4 55 0;
#X connect 82 5 93 0;
#X connect 82 5 55 0;
#X connect 90 0 91 0;
#X connect 91 0 69 0;
#X connect 92 0 102 0;
#X connect 93 0 92 1;
#X connect 94 0 92 1;
#X connect 96 0 92 0;
#X connect 97 0 95 0;
#X connect 98 0 89 0;
#X connect 102 0 97 0;
#X connect 102 1 98 0;
#X connect 105 0 103 0;
#X connect 106 0 104 0;
#X connect 107 0 9 0;
#X coords 0 720 1 719 120 180 0;
