#N canvas 493 256 760 644 10;
#X obj 346 135 r s_hue_1;
#X obj 497 135 r s_val_1;
#X obj 421 136 r s_sat_1;
#X obj 278 135 r s_on_1;
#X obj 162 327 sg r_on_1;
#X obj 232 327 sg r_hue_1;
#X obj 308 327 sg r_sat_1;
#X obj 387 327 sg r_val_1;
#X text 102 326 Feedback;
#X text 217 134 Commands;
#X obj 347 397 r s_hue_2;
#X obj 500 397 r s_val_2;
#X obj 423 397 r s_sat_2;
#X obj 281 397 r s_on_2;
#X obj 153 587 sg r_on_2;
#X obj 223 587 sg r_hue_2;
#X obj 299 587 sg r_sat_2;
#X obj 378 587 sg r_val_2;
#X text 93 586 Feedback;
#X text 220 396 Commands;
#X obj 431 13 loadbang;
#X msg 572 55 color -1.5773e+07;
#X obj 572 84 sg r_on_1;
#X obj 644 83 sg r_on_2;
#X obj 25 248 bulb eingang dahomey.local 8081;
#X obj 28 510 bulb mitte dahomey.local 8081;
#X text 269 10 Konfiguration des globalen Speed-Limits bzw. Sendefrequenz
für kontinuierliche Werte. 40ms = 25Hz, f 25;
#X obj 431 67 s r_speedlim;
#X obj 494 41 nbx 2 14 10 99 0 1 s_speedlim r_speedlim Clx 0 -8 0 13
-262144 -1 -1 40 256;
#X obj 18 33 netreceive 8081;
#X obj 18 62 s netreceive;
#X text 17 9 Feedback-Kanal an die bulb-Objekte;
#X obj 278 156 rg;
#X obj 346 156 rg;
#X obj 421 157 rg;
#X obj 497 156 rg;
#X obj 281 418 rg;
#X obj 347 418 rg;
#X obj 423 418 rg;
#X obj 500 418 rg;
#X text 568 8 Initial-Farbe rücksetzen \, da sie vpr dem Speichern
überschrieben werden kann., f 28;
#X obj 25 198 loadbang;
#X text 25 166 Auslesen beim Startup, f 13;
#X msg 25 222 bang;
#X obj 28 461 loadbang;
#X text 28 429 Auslesen beim Startup, f 13;
#X msg 28 485 bang;
#X obj 466 327 s r_on_1;
#X obj 457 587 s r_on_2;
#X text 465 344 color;
#X text 455 604 color;
#X msg 431 40 80;
#X connect 0 0 33 0;
#X connect 1 0 35 0;
#X connect 2 0 34 0;
#X connect 3 0 32 0;
#X connect 10 0 37 0;
#X connect 11 0 39 0;
#X connect 12 0 38 0;
#X connect 13 0 36 0;
#X connect 20 0 51 0;
#X connect 21 0 22 0;
#X connect 21 0 23 0;
#X connect 24 0 4 0;
#X connect 24 1 5 0;
#X connect 24 2 6 0;
#X connect 24 3 7 0;
#X connect 24 4 47 0;
#X connect 25 0 14 0;
#X connect 25 1 15 0;
#X connect 25 2 16 0;
#X connect 25 3 17 0;
#X connect 25 4 48 0;
#X connect 29 0 30 0;
#X connect 32 0 24 1;
#X connect 32 1 4 1;
#X connect 33 0 24 2;
#X connect 33 1 5 1;
#X connect 34 0 24 3;
#X connect 34 1 6 1;
#X connect 35 0 24 4;
#X connect 35 1 7 1;
#X connect 36 0 25 1;
#X connect 36 1 14 1;
#X connect 37 0 25 2;
#X connect 37 1 15 1;
#X connect 38 0 25 3;
#X connect 38 1 16 1;
#X connect 39 0 25 4;
#X connect 39 1 17 1;
#X connect 41 0 43 0;
#X connect 43 0 24 0;
#X connect 44 0 46 0;
#X connect 46 0 25 0;
#X connect 51 0 27 0;
