#N canvas 310 242 757 607 10;
#X obj 344 116 r s_hue_1;
#X obj 495 116 r s_val_1;
#X obj 419 117 r s_sat_1;
#X obj 276 116 r s_on_1;
#X obj 160 308 sg r_on_1;
#X obj 230 308 sg r_hue_1;
#X obj 306 308 sg r_sat_1;
#X obj 385 308 sg r_val_1;
#X obj 276 137 rg;
#X obj 344 137 rg;
#X obj 419 138 rg;
#X obj 495 137 rg;
#X obj 23 208 loadbang;
#X text 100 307 Feedback;
#X text 215 115 Commands;
#X text 23 176 Auslesen beim Startup, f 13;
#X obj 345 378 r s_hue_2;
#X obj 498 378 r s_val_2;
#X obj 421 378 r s_sat_2;
#X obj 279 378 r s_on_2;
#X obj 151 568 sg r_on_2;
#X obj 221 568 sg r_hue_2;
#X obj 297 568 sg r_sat_2;
#X obj 376 568 sg r_val_2;
#X obj 279 399 rg;
#X obj 345 399 rg;
#X obj 421 399 rg;
#X obj 498 399 rg;
#X obj 26 470 loadbang;
#X text 91 567 Feedback;
#X text 218 377 Commands;
#X text 26 438 Auslesen beim Startup, f 13;
#X obj 455 568 sg r_on_2;
#X obj 464 308 sg r_on_1;
#X obj 172 5 loadbang;
#X obj 172 58 s speedlim;
#X msg 412 12 color -1.5773e+07;
#X obj 412 41 sg r_on_1;
#X obj 484 40 sg r_on_2;
#X text 549 8 Initial-Farbe \, da sie vpr dem Speichern überschrieben
werden kann., f 28;
#X obj 253 5 loadbang;
#X msg 252 32 60;
#X obj 252 60 s bottleneck;
#X text 10 2 Konfiguration des globalen Speed-Limits bzw. Sendefrequenz
für kontinuierliche Werte. bottleneck ist der empirische Wert \, den
PdParty verträgt ohne Crash., f 25;
#X obj 23 229 bulb eingang dahomey.local 8081;
#X obj 26 491 bulb mitte dahomey.local 8081;
#X msg 172 32 120;
#X connect 0 0 9 0;
#X connect 1 0 11 0;
#X connect 2 0 10 0;
#X connect 3 0 8 0;
#X connect 8 0 44 1;
#X connect 8 1 4 1;
#X connect 9 0 44 2;
#X connect 9 1 5 1;
#X connect 10 0 44 3;
#X connect 10 1 6 1;
#X connect 11 0 44 4;
#X connect 11 1 7 1;
#X connect 12 0 44 0;
#X connect 16 0 25 0;
#X connect 17 0 27 0;
#X connect 18 0 26 0;
#X connect 19 0 24 0;
#X connect 24 0 45 1;
#X connect 24 1 20 1;
#X connect 25 0 45 2;
#X connect 25 1 21 1;
#X connect 26 0 45 3;
#X connect 26 1 22 1;
#X connect 27 0 45 4;
#X connect 27 1 23 1;
#X connect 28 0 45 0;
#X connect 34 0 46 0;
#X connect 36 0 37 0;
#X connect 36 0 38 0;
#X connect 40 0 41 0;
#X connect 41 0 42 0;
#X connect 44 0 4 0;
#X connect 44 1 5 0;
#X connect 44 2 6 0;
#X connect 44 3 7 0;
#X connect 44 4 33 0;
#X connect 45 0 20 0;
#X connect 45 1 21 0;
#X connect 45 2 22 0;
#X connect 45 3 23 0;
#X connect 45 4 32 0;
#X connect 46 0 35 0;
