#N canvas 192 179 617 279 10;
#X obj 318 35 r s_hue_2;
#X obj 402 77 r s_val_2;
#X obj 20 13 r s_on_1;
#X obj 60 34 r s_hue_1;
#X obj 103 55 r s_sat_1;
#X obj 355 55 r s_sat_2;
#X obj 154 77 r s_val_1;
#X obj 157 195 s r_val_1;
#X obj 106 173 s r_sat_1;
#X obj 63 152 s r_hue_1;
#X obj 23 129 s r_on_1;
#X obj 286 134 s r_on_2;
#X obj 326 158 s r_hue_2;
#X obj 369 179 s r_sat_2;
#X obj 420 201 s r_val_2;
#X obj 285 13 r s_on_2;
#X obj 170 131 s r_on_1;
#X obj 411 136 s r_on_2;
#X obj 286 106 bulb mitte dahomey.local 8081;
#X obj 23 103 bulb eingang dahomey.local 8081;
#X connect 0 0 18 1;
#X connect 1 0 18 3;
#X connect 2 0 19 0;
#X connect 3 0 19 1;
#X connect 4 0 19 2;
#X connect 5 0 18 2;
#X connect 6 0 19 3;
#X connect 15 0 18 0;
#X connect 18 0 11 0;
#X connect 18 1 12 0;
#X connect 18 2 13 0;
#X connect 18 3 14 0;
#X connect 18 4 17 0;
#X connect 19 0 10 0;
#X connect 19 1 9 0;
#X connect 19 2 8 0;
#X connect 19 3 7 0;
#X connect 19 4 16 0;
