#N canvas 251 23 932 897 10;
#X obj 116 543 netsend;
#X msg 41 434 disconnect;
#X obj 335 121 symbol \$1;
#X msg 114 146 hue \$1;
#X msg 174 147 sat \$1;
#X msg 233 147 val \$1;
#X msg 63 147 on \$1;
#X obj 115 207 list prepend;
#X msg 115 236 send \$1 \$2 \$3;
#X obj 63 89 inlet;
#X obj 115 89 inlet;
#X obj 174 90 inlet;
#X obj 233 89 inlet;
#X obj 309 624 symbol;
#X obj 35 965 spigot 0;
#X msg 90 936 1;
#X obj 115 332 t anything bang;
#X obj 105 1141 outlet;
#X obj 272 1142 outlet;
#X obj 427 1140 outlet;
#X obj 588 1136 outlet;
#X obj 200 963 spigot 0;
#X obj 357 965 spigot 0;
#X obj 516 970 spigot 0;
#X msg 255 935 1;
#X msg 409 939 1;
#X msg 566 940 1, f 5;
#X obj 446 938 r \$0-c;
#X obj 618 940 r \$0-c;
#X obj 33 1053 s \$0-c;
#X obj 200 1057 s \$0-c;
#X obj 357 1058 s \$0-c;
#X obj 517 1055 s \$0-c;
#X obj 293 933 r \$0-c;
#X obj 133 935 r \$0-c;
#X obj 125 683 s \$0-f;
#X obj 35 936 r \$0-f;
#X obj 201 937 r \$0-f;
#X obj 358 936 r \$0-f;
#X obj 516 939 r \$0-f;
#X text 16 4 Handle die Netzwerk-Kommunikation mit dem bulb.py Server.
Der Name der Abstraktion ist der Name der Bulb. Die vier Inlets erhalten
die neuen Werte on hue sat val \, die vier Outlets senden die abgeholten
Werte zurück.;
#X text 32 1079 s \$0-c schliesst alle gates nach Erhalt des float
;
#X obj 33 997 t bang float;
#X obj 199 999 t bang float;
#X obj 357 999 t bang float;
#X msg 33 1026 0;
#X msg 199 1026 0;
#X msg 357 1027 0;
#X msg 517 1025 0;
#X obj 516 996 t bang float;
#X obj 169 591 t bang anything anything;
#X msg 170 627 1;
#X msg 271 846 0;
#X obj 125 655 spigot 1;
#X text 166 684 Ausgelesener float;
#X obj 335 91 loadbang;
#X obj 414 122 symbol \$2;
#X text 336 68 Bulb;
#X text 419 68 Host;
#X text 504 68 Port;
#X obj 499 124 float \$3;
#X msg 149 510 \$1 \$2 \$3;
#X msg 150 433 connect;
#X obj 116 571 == 0;
#X obj 114 117 * 359;
#X obj 174 118 * 100;
#X obj 233 118 * 100;
#X obj 272 1112 / 359;
#X obj 426 1112 / 100;
#X obj 588 1108 / 100;
#X obj 213 796 sel eof on hue sat val rgb;
#X text 31 916 on;
#X text 198 913 hue;
#X text 354 915 sat;
#X text 514 915 val;
#X text 698 911 rgb;
#X obj 764 1137 outlet;
#X obj 149 460 list;
#X obj 149 486 list;
#X obj 695 970 spigot 0;
#X msg 745 940 1, f 5;
#X obj 797 940 r \$0-c;
#X obj 696 1055 s \$0-c;
#X obj 695 939 r \$0-f;
#X msg 696 1025 0;
#X msg 764 1107 color \$1;
#X text 10 400 zu bulb.py;
#X text 11 637 von bulb.py;
#X obj 695 996 t bang float;
#X obj 12 381 print out;
#X obj 12 620 print in;
#X obj 12 349 list trim;
#X obj 12 589 list trim;
#X obj 414 91 loadbang;
#X obj 499 90 loadbang;
#X obj 17 90 inlet;
#X msg 17 146 bang;
#X msg 18 235 send \$1;
#X obj 18 207 list;
#X obj 116 301 spigot 1;
#X text 24 796 Disconnecte bei explizitem EOF;
#X text 169 543 Sende die Message und decodiere die Antwort;
#X text 201 236 z.B. send bulb1 hue 359;
#X text 209 509 z.B. connect raspbery.local 8081;
#X text 173 302 Kein multi-threading und keepalive: Bearbeite nur \,
wenn disconnected, f 69;
#X text 212 748 Zuerst das symbol aus bulbs.py decodieren \, mit \$0-block
Weiterleitung des Symbols an float blockieren und dann (nächste Message
aus netsend) den float-val auslesen.;
#X text 360 588 Reply der Bulb: Sequentielle Messages opcode \; val
\; opcode \; val \; opcode \; val \;, f 39;
#X obj 209 627 r \$0-float;
#X obj 270 878 s \$0-float;
#X connect 0 0 63 0;
#X connect 0 1 50 0;
#X connect 0 1 92 0;
#X connect 1 0 0 0;
#X connect 2 0 7 1;
#X connect 2 0 98 1;
#X connect 3 0 7 0;
#X connect 4 0 7 0;
#X connect 5 0 7 0;
#X connect 6 0 7 0;
#X connect 7 0 8 0;
#X connect 8 0 99 0;
#X connect 9 0 6 0;
#X connect 10 0 64 0;
#X connect 11 0 65 0;
#X connect 12 0 66 0;
#X connect 13 0 70 0;
#X connect 14 0 42 0;
#X connect 15 0 14 1;
#X connect 16 0 0 0;
#X connect 16 1 62 0;
#X connect 21 0 43 0;
#X connect 22 0 44 0;
#X connect 23 0 49 0;
#X connect 24 0 21 1;
#X connect 25 0 22 1;
#X connect 26 0 23 1;
#X connect 27 0 22 1;
#X connect 28 0 23 1;
#X connect 33 0 21 1;
#X connect 34 0 14 1;
#X connect 36 0 14 0;
#X connect 37 0 21 0;
#X connect 38 0 22 0;
#X connect 39 0 23 0;
#X connect 42 0 45 0;
#X connect 42 1 17 0;
#X connect 43 0 46 0;
#X connect 43 1 67 0;
#X connect 44 0 47 0;
#X connect 44 1 68 0;
#X connect 45 0 29 0;
#X connect 46 0 30 0;
#X connect 47 0 31 0;
#X connect 48 0 32 0;
#X connect 49 0 48 0;
#X connect 49 1 69 0;
#X connect 50 0 51 0;
#X connect 50 1 53 0;
#X connect 50 2 13 0;
#X connect 51 0 53 1;
#X connect 52 0 108 0;
#X connect 53 0 35 0;
#X connect 55 0 2 0;
#X connect 56 0 77 1;
#X connect 60 0 78 1;
#X connect 61 0 0 0;
#X connect 62 0 77 0;
#X connect 63 0 99 1;
#X connect 64 0 3 0;
#X connect 65 0 4 0;
#X connect 66 0 5 0;
#X connect 67 0 18 0;
#X connect 68 0 19 0;
#X connect 69 0 20 0;
#X connect 70 0 1 0;
#X connect 70 1 15 0;
#X connect 70 1 52 0;
#X connect 70 2 24 0;
#X connect 70 2 52 0;
#X connect 70 3 25 0;
#X connect 70 3 52 0;
#X connect 70 4 26 0;
#X connect 70 4 52 0;
#X connect 70 5 80 0;
#X connect 70 5 52 0;
#X connect 77 0 78 0;
#X connect 78 0 61 0;
#X connect 79 0 88 0;
#X connect 80 0 79 1;
#X connect 81 0 79 1;
#X connect 83 0 79 0;
#X connect 84 0 82 0;
#X connect 85 0 76 0;
#X connect 88 0 84 0;
#X connect 88 1 85 0;
#X connect 93 0 56 0;
#X connect 94 0 60 0;
#X connect 95 0 96 0;
#X connect 96 0 98 0;
#X connect 97 0 99 0;
#X connect 98 0 97 0;
#X connect 99 0 16 0;
#X connect 99 0 91 0;
#X connect 107 0 53 1;
#X coords 0 897 1 896 120 180 0;
