#N canvas 249 200 834 603 10;
#X obj 78 16 inlet;
#X obj 78 61 expr ($f1 * 6) - 1;
#X text 194 62 -1..5;
#X text 190 91 Sekunden;
#X obj 78 119 expr 1 / $f1;
#X text 158 120 Hertz;
#X obj 15 16 inlet;
#X obj 250 22 inlet;
#X obj 306 23 inlet;
#X obj 52 668 snapshot~;
#X obj 125 987 outlet;
#X obj 361 22 inlet;
#X obj 125 736 4spigot;
#X obj 99 561 loadbang;
#X obj 78 90 expr pow(10 \, $f1);
#X msg 548 17 \; pd dsp 1 \;;
#X obj 34 286 +~ 1;
#X obj 34 314 /~ 2;
#X obj 237 767 float 1;
#X obj 182 766 float 0;
#X text 288 767 Wertebereich;
#X obj 144 892 float 0;
#X obj 125 949 spigot;
#X obj 144 923 !=;
#X obj 126 867 t f f f;
#X obj 34 258 osc~ 0.5;
#X text 178 868 Request nur wenn Wert geändert;
#X text 31 207 Sinus;
#X obj 137 320 phasor~;
#X obj 204 321 phasor~;
#X obj 204 289 * -1;
#X msg 243 290 0;
#X obj 77 149 s \$0-freq;
#X obj 15 60 s \$0-wave;
#X obj 250 55 s \$0-lo;
#X obj 182 738 r \$0-lo;
#X obj 306 54 s \$0-hi;
#X obj 361 86 s \$0-mod;
#X obj 237 738 r \$0-hi;
#X obj 164 695 r \$0-wave;
#X obj 34 230 r \$0-freq;
#X obj 33 345 s~ \$0-sin;
#X obj 52 640 r~ \$0-sin;
#X obj 123 668 snapshot~;
#X obj 196 668 snapshot~;
#X obj 123 637 r~ \$0-tri;
#X obj 196 637 r~ \$0-rec;
#X obj 263 667 r \$0-aud;
#X obj 136 227 r \$0-freq;
#X text 132 203 Triangel;
#X obj 174 449 +~;
#X obj 173 476 s~ \$0-tri;
#X obj 494 320 phasor~;
#X obj 561 321 phasor~;
#X obj 561 289 * -1;
#X msg 516 290 0;
#X obj 497 228 r \$0-freq;
#X obj 527 407 s~ \$0-rec;
#X text 493 204 Rechteck;
#X obj 215 228 loadbang;
#X obj 572 227 loadbang;
#X msg 600 289 0.5;
#X obj 527 349 +~;
#X text 855 198 Audio;
#X obj 99 590 metro 100;
#X text 165 591 10 Werte/Sek.;
#X obj 859 220 adc~ 1;
#X obj 858 481 t f f;
#X obj 858 536 spigot 1;
#X text 922 365 dB 0..100;
#X msg 923 561 1;
#X obj 858 692 s \$0-aud;
#X obj 923 536 sel 0;
#X obj 859 397 env~ 512 4096;
#X obj 126 797 scale 0 1 0 1;
#X obj 635 226 r \$0-mod;
#X obj 621 257 scale 0 1 1 0;
#X text 558 378 Asymm. Offset;
#X obj 361 57 scale 0 1 0.01 0.99;
#X text 480 57 div zero;
#X obj 527 376 -~ 0;
#X obj 632 318 expr 1 - $f1;
#X obj 126 830 expr rint($f1 * 100) / 100;
#X obj 296 230 r \$0-mod;
#X obj 883 342 env~ 90112 90112;
#X obj 859 422 / 100;
#X obj 883 365 / 100;
#X obj 1064 223 r \$0-mod;
#X text 895 482 Clip auf +1;
#X obj 858 586 t f f;
#X obj 858 641 spigot 1;
#X obj 923 641 sel 0;
#X text 896 587 Clip auf +0;
#X obj 904 509 < 1;
#X obj 903 614 > 0;
#X msg 923 666 0;
#X obj 859 452 expr ($f1 - $f2 + ($f3 / 2) ) / $f3;
#X obj 1065 249 scale 0 1 1 0;
#X text 1063 203 Breite um Avg \, je kleiner \, umso grösser die Varianz
;
#X text 989 341 Avg über ca. 2 Sek. bei 44.1 kHz;
#X msg 159 292 0;
#X obj 137 354 clip~ 0.5 1;
#X obj 221 354 clip~ 0.5 1;
#X obj 137 386 -~ 0.5;
#X obj 221 386 -~ 0.5;
#X obj 137 417 *~ 2;
#X obj 221 417 *~ 2;
#X obj 338 326 expr 1 - $f1;
#X obj 338 379 expr 1 / $f1;
#X obj 302 354 expr 1 / (1 - $f1);
#X text 566 203 Phasenverschiebung erzeugt Pulsbreite;
#X text 206 203 Verhältnis zwischen linker und echter Flanke;
#X text 926 199 Filter;
#X obj 931 219 r \$0-freq;
#X obj 931 248 scale 0 1 50 127;
#X obj 859 310 bp~ 200 10;
#X obj 931 279 mtof;
#X text 944 399 Peaks \, ca. 10 Werte/Sek. bei 44.1 kHz;
#X connect 0 0 1 0;
#X connect 1 0 14 0;
#X connect 4 0 32 0;
#X connect 6 0 33 0;
#X connect 7 0 34 0;
#X connect 8 0 36 0;
#X connect 9 0 12 0;
#X connect 11 0 78 0;
#X connect 12 0 74 0;
#X connect 13 0 64 0;
#X connect 14 0 4 0;
#X connect 16 0 17 0;
#X connect 17 0 41 0;
#X connect 18 0 74 4;
#X connect 19 0 74 3;
#X connect 21 0 23 1;
#X connect 22 0 10 0;
#X connect 23 0 22 1;
#X connect 24 0 22 0;
#X connect 24 1 21 0;
#X connect 24 2 23 0;
#X connect 25 0 16 0;
#X connect 28 0 101 0;
#X connect 29 0 102 0;
#X connect 30 0 29 0;
#X connect 31 0 29 1;
#X connect 31 0 28 1;
#X connect 35 0 19 0;
#X connect 38 0 18 0;
#X connect 39 0 12 4;
#X connect 40 0 25 0;
#X connect 42 0 9 0;
#X connect 43 0 12 1;
#X connect 44 0 12 2;
#X connect 45 0 43 0;
#X connect 46 0 44 0;
#X connect 47 0 12 3;
#X connect 48 0 28 0;
#X connect 48 0 30 0;
#X connect 50 0 51 0;
#X connect 52 0 62 0;
#X connect 53 0 62 1;
#X connect 54 0 53 0;
#X connect 55 0 52 1;
#X connect 56 0 52 0;
#X connect 56 0 54 0;
#X connect 59 0 31 0;
#X connect 59 0 100 0;
#X connect 60 0 61 0;
#X connect 60 0 55 0;
#X connect 61 0 53 1;
#X connect 62 0 80 0;
#X connect 64 0 9 0;
#X connect 64 0 43 0;
#X connect 64 0 44 0;
#X connect 66 0 115 0;
#X connect 67 0 68 0;
#X connect 67 1 93 0;
#X connect 68 0 89 0;
#X connect 70 0 89 0;
#X connect 72 0 70 0;
#X connect 73 0 85 0;
#X connect 74 0 82 0;
#X connect 75 0 76 0;
#X connect 75 0 81 0;
#X connect 76 0 53 1;
#X connect 76 0 55 0;
#X connect 78 0 37 0;
#X connect 80 0 57 0;
#X connect 81 0 80 1;
#X connect 82 0 24 0;
#X connect 83 0 107 0;
#X connect 83 0 109 0;
#X connect 83 0 108 0;
#X connect 83 0 101 1;
#X connect 83 0 103 1;
#X connect 84 0 86 0;
#X connect 85 0 96 0;
#X connect 86 0 96 1;
#X connect 87 0 97 0;
#X connect 89 0 90 0;
#X connect 89 1 94 0;
#X connect 90 0 71 0;
#X connect 91 0 95 0;
#X connect 93 0 68 1;
#X connect 93 0 72 0;
#X connect 94 0 90 1;
#X connect 94 0 91 0;
#X connect 95 0 71 0;
#X connect 96 0 67 0;
#X connect 97 0 96 2;
#X connect 100 0 28 1;
#X connect 101 0 103 0;
#X connect 102 0 104 0;
#X connect 103 0 105 0;
#X connect 104 0 106 0;
#X connect 105 0 50 0;
#X connect 106 0 50 1;
#X connect 107 0 102 1;
#X connect 107 0 104 1;
#X connect 108 0 106 1;
#X connect 109 0 105 1;
#X connect 113 0 114 0;
#X connect 114 0 116 0;
#X connect 115 0 84 0;
#X connect 115 0 73 0;
#X connect 116 0 115 1;
