#N canvas 325 65 459 788 10;
#X obj 10 46 r s_wave_1;
#X obj 90 46 r s_freq_1;
#X obj 171 45 r s_lo_1;
#X obj 238 45 r s_hi_1;
#X obj 305 44 r s_mod_1;
#X msg 101 288 0.2;
#X msg 247 290 1;
#X obj 22 322 s r_wave_1;
#X obj 101 322 s r_freq_1;
#X obj 181 321 s r_lo_1;
#X obj 247 321 s r_hi_1;
#X obj 314 323 s r_mod_1;
#X msg 314 291 0.5;
#X obj 180 226 loadbang;
#X obj 107 400 r s_target1_1;
#X obj 211 400 r s_target2_1;
#X obj 21 458 targets_r_s;
#X text 23 208 Initialisierung auf neutrale Werte;
#X msg 22 291 0;
#X msg 180 287 0;
#X obj 10 569 r s_wave_2;
#X obj 89 569 r s_freq_2;
#X obj 169 568 r s_lo_2;
#X obj 237 568 r s_hi_2;
#X obj 304 567 r s_mod_2;
#X msg 97 802 0.2;
#X msg 243 804 1;
#X obj 18 836 s r_wave_2;
#X obj 97 836 s r_freq_2;
#X obj 177 835 s r_lo_2;
#X obj 243 837 s r_hi_2;
#X obj 310 837 s r_mod_2;
#X msg 310 805 0.5;
#X obj 176 740 loadbang;
#X obj 110 915 r s_target1_2;
#X obj 214 914 r s_target2_2;
#X text 19 722 Initialisierung auf neutrale Werte;
#X msg 18 805 0;
#X msg 176 801 0;
#X obj 15 1092 r s_wave_3;
#X obj 94 1092 r s_freq_3;
#X obj 174 1091 r s_lo_3;
#X obj 241 1091 r s_hi_3;
#X obj 308 1090 r s_mod_3;
#X msg 96 1331 0.2;
#X msg 242 1333 1;
#X obj 17 1365 s r_wave_3;
#X obj 96 1365 s r_freq_3;
#X obj 176 1364 s r_lo_3;
#X obj 242 1366 s r_hi_3;
#X obj 309 1366 s r_mod_3;
#X msg 309 1334 0.5;
#X obj 175 1269 loadbang;
#X obj 99 1444 r s_target1_3;
#X obj 202 1444 r s_target2_3;
#X text 18 1251 Initialisierung auf neutrale Werte;
#X msg 17 1334 0;
#X msg 175 1330 0;
#X text 11 9 Verbindet das 1lfo.pd GUI mit einem lfo.pd Oszillator-Patch
;
#X text 10 532 Verbindet das 1lfo.pd GUI mit einem lfo.pd Oszillator-Patch
;
#X text 15 1055 Verbindet das 1lfo.pd GUI mit einem lfo.pd Oszillator-Patch
;
#X text 23 374 Senden des LFO-Signals durch die Gate 1..8 fürs target
;
#X text 18 1417 Senden des LFO-Signals durch die Gate 1..8 fürs target
;
#X text 19 888 Senden des LFO-Signals durch die Gate 1..8 fürs target
;
#X obj 87 165 s \$0_lfo_1;
#X obj 21 401 r \$0_lfo_1;
#X obj 86 688 s \$0_lfo_2;
#X obj 17 915 r \$0_lfo_2;
#X obj 91 1212 s \$0_lfo_3;
#X obj 16 1444 r \$0_lfo_3;
#X msg 176 768 bang;
#X msg 175 1297 bang;
#X msg 180 253 bang;
#X obj 10 70 rp s_wave_1;
#X obj 90 70 rp s_freq_1;
#X obj 170 70 rp s_lo_1;
#X obj 237 70 rp s_hi_1;
#X obj 305 70 rp s_mod_1;
#X obj 87 128 lfo;
#X obj 86 651 lfo;
#X obj 91 1174 lfo;
#X obj 14 1117 rp s_wave_3;
#X obj 94 1117 rp s_freq_3;
#X obj 174 1117 rp s_lo_3;
#X obj 241 1116 rp s_hi_3;
#X obj 308 1116 rp s_mod_3;
#X obj 9 594 rp s_wave_2;
#X obj 89 594 rp s_freq_2;
#X obj 169 594 rp s_lo_2;
#X obj 236 593 rp s_hi_2;
#X obj 304 594 rp s_mod_2;
#X obj 107 426 rp s_target1_1;
#X obj 211 427 rp s_target2_1;
#X obj 17 972 targets_r_s;
#X obj 110 940 rp s_target1_2;
#X obj 214 941 rp s_target2_2;
#X obj 16 1500 targets_r_s;
#X obj 202 1469 rp s_target2_2;
#X obj 99 1470 rp s_target1_3;
#X connect 0 0 73 0;
#X connect 1 0 74 0;
#X connect 2 0 75 0;
#X connect 3 0 76 0;
#X connect 4 0 77 0;
#X connect 5 0 8 0;
#X connect 6 0 10 0;
#X connect 12 0 11 0;
#X connect 13 0 72 0;
#X connect 14 0 91 0;
#X connect 15 0 92 0;
#X connect 18 0 7 0;
#X connect 19 0 9 0;
#X connect 20 0 86 0;
#X connect 21 0 87 0;
#X connect 22 0 88 0;
#X connect 23 0 89 0;
#X connect 24 0 90 0;
#X connect 25 0 28 0;
#X connect 26 0 30 0;
#X connect 32 0 31 0;
#X connect 33 0 70 0;
#X connect 34 0 94 0;
#X connect 35 0 95 0;
#X connect 37 0 27 0;
#X connect 38 0 29 0;
#X connect 39 0 81 0;
#X connect 40 0 82 0;
#X connect 41 0 83 0;
#X connect 42 0 84 0;
#X connect 43 0 85 0;
#X connect 44 0 47 0;
#X connect 45 0 49 0;
#X connect 51 0 50 0;
#X connect 52 0 71 0;
#X connect 53 0 98 0;
#X connect 54 0 97 0;
#X connect 56 0 46 0;
#X connect 57 0 48 0;
#X connect 65 0 16 0;
#X connect 67 0 93 0;
#X connect 69 0 96 0;
#X connect 70 0 37 0;
#X connect 70 0 25 0;
#X connect 70 0 38 0;
#X connect 70 0 26 0;
#X connect 70 0 32 0;
#X connect 71 0 56 0;
#X connect 71 0 44 0;
#X connect 71 0 57 0;
#X connect 71 0 45 0;
#X connect 71 0 51 0;
#X connect 72 0 18 0;
#X connect 72 0 5 0;
#X connect 72 0 19 0;
#X connect 72 0 6 0;
#X connect 72 0 12 0;
#X connect 73 0 78 0;
#X connect 74 0 78 1;
#X connect 75 0 78 2;
#X connect 76 0 78 3;
#X connect 77 0 78 4;
#X connect 78 0 64 0;
#X connect 79 0 66 0;
#X connect 80 0 68 0;
#X connect 81 0 80 0;
#X connect 82 0 80 1;
#X connect 83 0 80 2;
#X connect 84 0 80 3;
#X connect 85 0 80 4;
#X connect 86 0 79 0;
#X connect 87 0 79 1;
#X connect 88 0 79 2;
#X connect 89 0 79 3;
#X connect 90 0 79 4;
#X connect 91 0 16 1;
#X connect 92 0 16 2;
#X connect 94 0 93 1;
#X connect 95 0 93 2;
#X connect 97 0 96 2;
#X connect 98 0 96 1;
