#N canvas 312 149 459 776 10;
#X obj 11 46 r s_wave_1;
#X obj 90 46 r s_freq_1;
#X obj 170 45 r s_lo_1;
#X obj 235 45 r s_hi_1;
#X obj 300 44 r s_mod_1;
#X msg 101 288 0.2;
#X msg 247 290 1;
#X obj 22 322 s r_wave_1;
#X obj 101 322 s r_freq_1;
#X obj 181 321 s r_lo_1;
#X obj 247 321 s r_hi_1;
#X obj 314 323 s r_mod_1;
#X msg 314 291 0.5;
#X obj 180 253 bng 15 250 50 0 empty empty empty 17 7 0 10 -262144
-1 -1;
#X obj 180 226 loadbang;
#X obj 107 400 r s_target1_1;
#X obj 211 400 r s_target2_1;
#X obj 21 436 targets_r_s;
#X text 23 208 Initialisierung auf neutrale Werte;
#X msg 22 291 0;
#X msg 180 287 0;
#X obj 87 128 lfo;
#X obj 10 569 r s_wave_2;
#X obj 89 569 r s_freq_2;
#X obj 169 568 r s_lo_2;
#X obj 234 568 r s_hi_2;
#X obj 299 567 r s_mod_2;
#X msg 97 802 0.2;
#X msg 243 804 1;
#X obj 18 836 s r_wave_2;
#X obj 97 836 s r_freq_2;
#X obj 177 835 s r_lo_2;
#X obj 243 837 s r_hi_2;
#X obj 310 837 s r_mod_2;
#X msg 310 805 0.5;
#X obj 176 767 bng 15 250 50 0 empty empty empty 17 7 0 10 -262144
-1 -1;
#X obj 176 740 loadbang;
#X obj 110 915 r s_target1_2;
#X obj 214 914 r s_target2_2;
#X obj 17 950 targets_r_s;
#X text 19 722 Initialisierung auf neutrale Werte;
#X msg 18 805 0;
#X msg 176 801 0;
#X obj 86 651 lfo;
#X obj 15 1092 r s_wave_3;
#X obj 94 1092 r s_freq_3;
#X obj 174 1091 r s_lo_3;
#X obj 239 1091 r s_hi_3;
#X obj 304 1090 r s_mod_3;
#X msg 96 1331 0.2;
#X msg 242 1333 1;
#X obj 17 1365 s r_wave_3;
#X obj 96 1365 s r_freq_3;
#X obj 176 1364 s r_lo_3;
#X obj 242 1366 s r_hi_3;
#X obj 309 1366 s r_mod_3;
#X msg 309 1334 0.5;
#X obj 175 1296 bng 15 250 50 0 empty empty empty 17 7 0 10 -262144
-1 -1;
#X obj 175 1269 loadbang;
#X obj 101 1441 r s_target1_3;
#X obj 204 1441 r s_target2_3;
#X obj 16 1479 targets_r_s;
#X text 18 1251 Initialisierung auf neutrale Werte;
#X msg 17 1334 0;
#X msg 175 1330 0;
#X obj 91 1174 lfo;
#X text 11 9 Verbindet das 1lfo.pd GUI mit einem lfo.pd Oszillator-Patch
;
#X text 10 532 Verbindet das 1lfo.pd GUI mit einem lfo.pd Oszillator-Patch
;
#X text 15 1055 Verbindet das 1lfo.pd GUI mit einem lfo.pd Oszillator-Patch
;
#X text 23 374 Senden des LFO-Signals durch die Gate 1..8 fürs target
;
#X text 18 1417 Senden des LFO-Signals durch die Gate 1..8 fürs target
;
#X text 19 888 Senden des LFO-Signals durch die Gate 1..8 fürs target
;
#X obj 87 165 s \$0_lfo_1;
#X obj 21 401 r \$0_lfo_1;
#X obj 86 688 s \$0_lfo_2;
#X obj 17 915 r \$0_lfo_2;
#X obj 91 1212 s \$0_lfo_3;
#X obj 16 1444 r \$0_lfo_3;
#X connect 0 0 21 0;
#X connect 1 0 21 1;
#X connect 2 0 21 2;
#X connect 3 0 21 3;
#X connect 4 0 21 4;
#X connect 5 0 8 0;
#X connect 6 0 10 0;
#X connect 12 0 11 0;
#X connect 13 0 7 0;
#X connect 13 0 5 0;
#X connect 13 0 6 0;
#X connect 13 0 12 0;
#X connect 13 0 20 0;
#X connect 13 0 19 0;
#X connect 14 0 13 0;
#X connect 15 0 17 1;
#X connect 16 0 17 2;
#X connect 19 0 7 0;
#X connect 20 0 9 0;
#X connect 21 0 72 0;
#X connect 22 0 43 0;
#X connect 23 0 43 1;
#X connect 24 0 43 2;
#X connect 25 0 43 3;
#X connect 26 0 43 4;
#X connect 27 0 30 0;
#X connect 28 0 32 0;
#X connect 34 0 33 0;
#X connect 35 0 29 0;
#X connect 35 0 27 0;
#X connect 35 0 28 0;
#X connect 35 0 34 0;
#X connect 35 0 42 0;
#X connect 35 0 41 0;
#X connect 36 0 35 0;
#X connect 37 0 39 1;
#X connect 38 0 39 2;
#X connect 41 0 29 0;
#X connect 42 0 31 0;
#X connect 43 0 74 0;
#X connect 44 0 65 0;
#X connect 45 0 65 1;
#X connect 46 0 65 2;
#X connect 47 0 65 3;
#X connect 48 0 65 4;
#X connect 49 0 52 0;
#X connect 50 0 54 0;
#X connect 56 0 55 0;
#X connect 57 0 51 0;
#X connect 57 0 49 0;
#X connect 57 0 50 0;
#X connect 57 0 56 0;
#X connect 57 0 64 0;
#X connect 57 0 63 0;
#X connect 58 0 57 0;
#X connect 59 0 61 1;
#X connect 60 0 61 2;
#X connect 63 0 51 0;
#X connect 64 0 53 0;
#X connect 65 0 76 0;
#X connect 73 0 17 0;
#X connect 75 0 39 0;
#X connect 77 0 61 0;
