#N canvas 312 149 459 776 10;
#X obj 11 46 r s_wave_1;
#X obj 90 46 r s_freq_1;
#X obj 170 45 r s_lo_1;
#X obj 235 45 r s_hi_1;
#X obj 300 44 r s_mod_1;
#X msg 100 314 0.2;
#X msg 246 316 1;
#X obj 21 348 s r_wave_1;
#X obj 100 348 s r_freq_1;
#X obj 180 347 s r_lo_1;
#X obj 246 347 s r_hi_1;
#X obj 313 349 s r_mod_1;
#X obj 217 110 >;
#X text 310 76 Überschneiden unterbinden;
#X obj 170 137 spigot;
#X obj 170 111 float;
#X obj 255 136 spigot;
#X obj 255 84 t f f;
#X obj 255 110 float;
#X obj 302 109 <;
#X obj 169 165 s r_hi_1;
#X obj 255 163 s r_lo_1;
#X obj 170 85 t b f;
#X msg 313 317 0.5;
#X obj 179 279 bng 15 250 50 0 empty empty empty 17 7 0 10 -262144
-1 -1;
#X obj 179 252 loadbang;
#X obj 20 427 r \$0-lfo;
#X obj 87 165 s \$0-lfo;
#X obj 87 427 r s_target1_1;
#X obj 191 427 r s_target2_1;
#X obj 13 164 s r_lfo_1;
#X obj 20 462 targets_r_s;
#X text 22 234 Initialisierung auf neutrale Werte;
#X msg 21 317 0;
#X msg 179 313 0;
#X text 22 400 Senden des LFO-Signatls durch die Gate 1..8 fürs target
;
#X obj 87 128 lfo;
#X text 11 9 Verbindet das 1lfo.pd GUI mit einem lfp.pd Oszillator-Patch
;
#X obj 10 569 r s_wave_2;
#X obj 89 569 r s_freq_2;
#X obj 169 568 r s_lo_2;
#X obj 234 568 r s_hi_2;
#X obj 299 567 r s_mod_2;
#X msg 99 837 0.2;
#X msg 245 839 1;
#X obj 20 871 s r_wave_2;
#X obj 99 871 s r_freq_2;
#X obj 179 870 s r_lo_2;
#X obj 245 872 s r_hi_2;
#X obj 312 872 s r_mod_2;
#X obj 216 633 >;
#X text 309 599 Überschneiden unterbinden;
#X obj 169 660 spigot;
#X obj 169 634 float;
#X obj 254 659 spigot;
#X obj 254 607 t f f;
#X obj 254 633 float;
#X obj 301 632 <;
#X obj 168 688 s r_hi_2;
#X obj 254 686 s r_lo_2;
#X obj 169 608 t b f;
#X msg 312 840 0.5;
#X obj 178 802 bng 15 250 50 0 empty empty empty 17 7 0 10 -262144
-1 -1;
#X obj 178 775 loadbang;
#X obj 19 950 r \$0-lfo;
#X obj 91 688 s \$0-lfo;
#X obj 88 950 r s_target1_2;
#X obj 192 949 r s_target2_2;
#X obj 16 688 s r_lfo_2;
#X obj 19 985 targets_r_s;
#X text 21 757 Initialisierung auf neutrale Werte;
#X msg 20 840 0;
#X msg 178 836 0;
#X text 21 923 Senden des LFO-Signatls durch die Gate 1..8 fürs target
;
#X obj 86 651 lfo;
#X text 10 532 Verbindet das 1lfo.pd GUI mit einem lfp.pd Oszillator-Patch
;
#X obj 15 1092 r s_wave_3;
#X obj 94 1092 r s_freq_3;
#X obj 174 1091 r s_lo_3;
#X obj 239 1091 r s_hi_3;
#X obj 304 1090 r s_mod_3;
#X msg 104 1360 0.2;
#X msg 250 1362 1;
#X obj 25 1394 s r_wave_3;
#X obj 104 1394 s r_freq_3;
#X obj 184 1393 s r_lo_3;
#X obj 250 1395 s r_hi_3;
#X obj 317 1395 s r_mod_3;
#X obj 221 1156 >;
#X text 314 1122 Überschneiden unterbinden;
#X obj 174 1183 spigot;
#X obj 174 1157 float;
#X obj 259 1182 spigot;
#X obj 259 1130 t f f;
#X obj 259 1156 float;
#X obj 306 1155 <;
#X obj 173 1211 s r_hi_3;
#X obj 259 1209 s r_lo_3;
#X obj 174 1131 t b f;
#X msg 317 1363 0.5;
#X obj 183 1325 bng 15 250 50 0 empty empty empty 17 7 0 10 -262144
-1 -1;
#X obj 183 1298 loadbang;
#X obj 24 1473 r \$0-lfo;
#X obj 91 1212 s \$0-lfo;
#X obj 90 1474 r s_target1_3;
#X obj 193 1474 r s_target2_3;
#X obj 15 1212 s r_lfo_3;
#X obj 24 1508 targets_r_s;
#X text 26 1280 Initialisierung auf neutrale Werte;
#X msg 25 1363 0;
#X msg 183 1359 0;
#X text 26 1446 Senden des LFO-Signatls durch die Gate 1..8 fürs target
;
#X obj 91 1174 lfo;
#X text 15 1055 Verbindet das 1lfo.pd GUI mit einem lfp.pd Oszillator-Patch
;
#X connect 0 0 36 0;
#X connect 1 0 36 1;
#X connect 2 0 19 1;
#X connect 2 0 22 0;
#X connect 2 0 36 2;
#X connect 3 0 12 1;
#X connect 3 0 17 0;
#X connect 3 0 36 3;
#X connect 4 0 36 4;
#X connect 5 0 8 0;
#X connect 6 0 10 0;
#X connect 12 0 14 1;
#X connect 14 0 20 0;
#X connect 15 0 14 0;
#X connect 16 0 21 0;
#X connect 17 0 18 0;
#X connect 17 1 18 1;
#X connect 17 1 19 0;
#X connect 18 0 16 0;
#X connect 19 0 16 1;
#X connect 22 0 15 0;
#X connect 22 1 15 1;
#X connect 22 1 12 0;
#X connect 23 0 11 0;
#X connect 24 0 7 0;
#X connect 24 0 5 0;
#X connect 24 0 6 0;
#X connect 24 0 23 0;
#X connect 24 0 34 0;
#X connect 24 0 33 0;
#X connect 25 0 24 0;
#X connect 26 0 31 0;
#X connect 28 0 31 1;
#X connect 29 0 31 2;
#X connect 33 0 7 0;
#X connect 34 0 9 0;
#X connect 36 0 27 0;
#X connect 36 0 30 0;
#X connect 38 0 74 0;
#X connect 39 0 74 1;
#X connect 40 0 57 1;
#X connect 40 0 60 0;
#X connect 40 0 74 2;
#X connect 41 0 50 1;
#X connect 41 0 55 0;
#X connect 41 0 74 3;
#X connect 42 0 74 4;
#X connect 43 0 46 0;
#X connect 44 0 48 0;
#X connect 50 0 52 1;
#X connect 52 0 58 0;
#X connect 53 0 52 0;
#X connect 54 0 59 0;
#X connect 55 0 56 0;
#X connect 55 1 56 1;
#X connect 55 1 57 0;
#X connect 56 0 54 0;
#X connect 57 0 54 1;
#X connect 60 0 53 0;
#X connect 60 1 53 1;
#X connect 60 1 50 0;
#X connect 61 0 49 0;
#X connect 62 0 45 0;
#X connect 62 0 43 0;
#X connect 62 0 44 0;
#X connect 62 0 61 0;
#X connect 62 0 72 0;
#X connect 62 0 71 0;
#X connect 63 0 62 0;
#X connect 64 0 69 0;
#X connect 66 0 69 1;
#X connect 67 0 69 2;
#X connect 71 0 45 0;
#X connect 72 0 47 0;
#X connect 74 0 65 0;
#X connect 74 0 68 0;
#X connect 76 0 112 0;
#X connect 77 0 112 1;
#X connect 78 0 95 1;
#X connect 78 0 98 0;
#X connect 78 0 112 2;
#X connect 79 0 88 1;
#X connect 79 0 93 0;
#X connect 79 0 112 3;
#X connect 80 0 112 4;
#X connect 81 0 84 0;
#X connect 82 0 86 0;
#X connect 88 0 90 1;
#X connect 90 0 96 0;
#X connect 91 0 90 0;
#X connect 92 0 97 0;
#X connect 93 0 94 0;
#X connect 93 1 94 1;
#X connect 93 1 95 0;
#X connect 94 0 92 0;
#X connect 95 0 92 1;
#X connect 98 0 91 0;
#X connect 98 1 91 1;
#X connect 98 1 88 0;
#X connect 99 0 87 0;
#X connect 100 0 83 0;
#X connect 100 0 81 0;
#X connect 100 0 82 0;
#X connect 100 0 99 0;
#X connect 100 0 110 0;
#X connect 100 0 109 0;
#X connect 101 0 100 0;
#X connect 102 0 107 0;
#X connect 104 0 107 1;
#X connect 105 0 107 2;
#X connect 109 0 83 0;
#X connect 110 0 85 0;
#X connect 112 0 103 0;
#X connect 112 0 106 0;
