#N canvas 379 385 638 484 10;
#X obj 426 31 loadbang;
#X text 497 11 Send to Peer Argument: Server-Host Portnummer Message:
Send-Name und Wert (Atom oder Liste), f 20;
#X obj 219 32 loadbang;
#X obj 219 60 symbol \$1;
#X obj 426 60 float \$2;
#X obj 126 32 r peersend;
#X obj 145 372 netsend;
#X msg 72 263 disconnect;
#X msg 178 339 \$1 \$2 \$3;
#X msg 178 263 connect;
#X obj 145 400 == 0;
#X obj 178 289 list;
#X obj 178 315 list;
#X text 20 224 zu bulb.py;
#X obj 22 205 print out;
#X obj 22 173 list trim;
#X obj 126 125 spigot 1;
#X text 183 126 Kein multi-threading und keepalive: Bearbeite nur \,
wenn disconnected, f 36;
#X obj 126 156 t b a b;
#X obj 307 33 r peer_ip;
#X text 218 12 Host im .pd;
#X text 424 12 Port;
#X text 305 13 Host via bulbs.py;
#X obj 536 143 print peer_ip;
#X obj 126 91 prepent send;
#X obj 540 268 print netsend;
#X text 237 338 z.B. connect raspbery.local 8083;
#X connect 0 0 4 0;
#X connect 2 0 3 0;
#X connect 3 0 11 1;
#X connect 4 0 12 1;
#X connect 5 0 24 0;
#X connect 6 0 10 0;
#X connect 7 0 6 0;
#X connect 8 0 6 0;
#X connect 9 0 11 0;
#X connect 10 0 16 1;
#X connect 11 0 12 0;
#X connect 12 0 8 0;
#X connect 16 0 15 0;
#X connect 16 0 18 0;
#X connect 18 0 7 0;
#X connect 18 1 6 0;
#X connect 18 2 9 0;
#X connect 19 0 11 1;
#X connect 19 0 23 0;
#X connect 24 0 16 0;
