#N canvas 143 46 659 859 10;
#X obj 25 1247 r s_wave_1;
#X obj 104 1247 r s_freq_1;
#X obj 184 1246 r s_lo_1;
#X obj 249 1246 r s_hi_1;
#X obj 314 1245 r s_mod_1;
#X obj 91 1095 r s_hue_1;
#X obj 235 1095 r s_val_1;
#X obj 162 1095 r s_sat_1;
#X obj 26 1095 r s_on_1;
#X obj 23 1322 r s_wave_2;
#X obj 102 1322 r s_freq_2;
#X obj 182 1321 r s_lo_2;
#X obj 247 1321 r s_hi_2;
#X obj 312 1320 r s_mod_2;
#X obj 22 1401 r s_wave_3;
#X obj 101 1401 r s_freq_3;
#X obj 181 1400 r s_lo_3;
#X obj 246 1400 r s_hi_3;
#X obj 311 1399 r s_mod_3;
#X obj 89 1157 r s_hue_2;
#X obj 233 1157 r s_val_2;
#X obj 160 1157 r s_sat_2;
#X obj 24 1157 r s_on_2;
#X obj 103 177 s get_bulb_1;
#X obj 16 177 s get_bulb_2;
#X obj 357 179 s get_lfo_1;
#X obj 276 178 s get_lfo_2;
#X obj 192 177 s get_lfo_3;
#X obj 152 137 t b b b b b;
#X obj 152 108 r get_all;
#X obj 66 290 r get_bulb_1;
#X obj 66 316 t b b b b;
#X msg 83 343 r_hue_1;
#X msg 146 343 r_sat_1;
#X msg 212 342 r_val_1;
#X obj 83 375 s get_values;
#X obj 62 415 r get_bulb_2;
#X obj 62 441 t b b b b;
#X msg 79 468 r_hue_2;
#X msg 142 468 r_sat_2;
#X msg 208 467 r_val_2;
#X obj 79 500 s get_values;
#X obj 140 1128 s value;
#X obj 139 1191 s value;
#X obj 184 1286 s value;
#X obj 182 1363 s value;
#X obj 181 1442 s value;
#X obj 284 288 r s_on_1;
#X obj 283 341 float;
#X obj 283 313 r f_on_1;
#X obj 283 368 s r_on_1;
#X obj 284 467 float;
#X msg 24 343 f_on_1;
#X msg 20 468 f_on_2;
#X obj 285 414 r s_on_2;
#X obj 284 439 r f_on_2;
#X obj 284 494 s r_on_2;
#X obj 383 1244 r s_target1_1;
#X obj 479 1244 r s_target2_1;
#X obj 475 1399 r s_target2_3;
#X obj 379 1399 r s_target1_3;
#X obj 382 1319 r s_target1_2;
#X obj 478 1319 r s_target2_2;
#X obj 150 555 r get_lfo_1;
#X msg 21 626 r_wave_1;
#X msg 101 627 r_freq_1;
#X msg 179 626 r_lo_1;
#X msg 247 625 r_hi_1;
#X msg 315 625 r_mod_1;
#X obj 179 672 s get_values;
#X obj 150 584 t b b b b b b b;
#X msg 381 626 r_target1_1;
#X msg 471 625 r_target2_1;
#X obj 147 719 r get_lfo_2;
#X msg 18 790 r_wave_2;
#X msg 98 791 r_freq_2;
#X msg 176 790 r_lo_2;
#X msg 244 789 r_hi_2;
#X msg 312 789 r_mod_2;
#X obj 176 836 s get_values;
#X obj 147 748 t b b b b b b b;
#X msg 378 790 r_target1_2;
#X msg 468 789 r_target2_2;
#X obj 146 876 r get_lfo_3;
#X msg 17 947 r_wave_3;
#X msg 97 948 r_freq_3;
#X msg 175 947 r_lo_3;
#X msg 243 946 r_hi_3;
#X msg 311 946 r_mod_3;
#X obj 175 993 s get_values;
#X obj 146 905 t b b b b b b b;
#X msg 377 947 r_target1_3;
#X msg 467 946 r_target2_3;
#X text 23 1067 Auf Bang ausgegebene Ist-Werte sammeln und an value
senden.;
#X text 15 3 Preset-Verkabelung. get_all sendet je eine Message mit
dem receive-Namen des entsprechenden GUI-Elements an get_values. Der
Patch presets.pd sendet darauf ein Bang an das Element \, welches den
Wert an value sendet.;
#X obj 423 14 preset;
#X text 19 239 Generiere Namens-Messages für jedes einzelne anzubangende
receive \, das danach den gespeicherten Wert erhalten soll.;
#X text 16 83 Bang an alle LFO \, dann die Einzel-Bulbs;
#X connect 0 0 44 0;
#X connect 1 0 44 0;
#X connect 2 0 44 0;
#X connect 3 0 44 0;
#X connect 4 0 44 0;
#X connect 5 0 42 0;
#X connect 6 0 42 0;
#X connect 7 0 42 0;
#X connect 8 0 42 0;
#X connect 9 0 45 0;
#X connect 10 0 45 0;
#X connect 11 0 45 0;
#X connect 12 0 45 0;
#X connect 13 0 45 0;
#X connect 14 0 46 0;
#X connect 15 0 46 0;
#X connect 16 0 46 0;
#X connect 17 0 46 0;
#X connect 18 0 46 0;
#X connect 19 0 43 0;
#X connect 20 0 43 0;
#X connect 21 0 43 0;
#X connect 22 0 43 0;
#X connect 28 0 24 0;
#X connect 28 1 23 0;
#X connect 28 2 27 0;
#X connect 28 3 26 0;
#X connect 28 4 25 0;
#X connect 29 0 28 0;
#X connect 30 0 31 0;
#X connect 31 0 52 0;
#X connect 31 1 32 0;
#X connect 31 2 33 0;
#X connect 31 3 34 0;
#X connect 32 0 35 0;
#X connect 33 0 35 0;
#X connect 34 0 35 0;
#X connect 36 0 37 0;
#X connect 37 0 53 0;
#X connect 37 1 38 0;
#X connect 37 2 39 0;
#X connect 37 3 40 0;
#X connect 38 0 41 0;
#X connect 39 0 41 0;
#X connect 40 0 41 0;
#X connect 47 0 48 1;
#X connect 48 0 50 0;
#X connect 49 0 48 0;
#X connect 51 0 56 0;
#X connect 52 0 35 0;
#X connect 53 0 41 0;
#X connect 54 0 51 1;
#X connect 55 0 51 0;
#X connect 57 0 44 0;
#X connect 58 0 44 0;
#X connect 59 0 46 0;
#X connect 60 0 46 0;
#X connect 61 0 45 0;
#X connect 62 0 45 0;
#X connect 63 0 70 0;
#X connect 64 0 69 0;
#X connect 65 0 69 0;
#X connect 66 0 69 0;
#X connect 67 0 69 0;
#X connect 68 0 69 0;
#X connect 70 0 64 0;
#X connect 70 1 65 0;
#X connect 70 2 66 0;
#X connect 70 3 67 0;
#X connect 70 4 68 0;
#X connect 70 5 71 0;
#X connect 70 6 72 0;
#X connect 71 0 69 0;
#X connect 72 0 69 0;
#X connect 73 0 80 0;
#X connect 74 0 79 0;
#X connect 75 0 79 0;
#X connect 76 0 79 0;
#X connect 77 0 79 0;
#X connect 78 0 79 0;
#X connect 80 0 74 0;
#X connect 80 1 75 0;
#X connect 80 2 76 0;
#X connect 80 3 77 0;
#X connect 80 4 78 0;
#X connect 80 5 81 0;
#X connect 80 6 82 0;
#X connect 81 0 79 0;
#X connect 82 0 79 0;
#X connect 83 0 90 0;
#X connect 84 0 89 0;
#X connect 85 0 89 0;
#X connect 86 0 89 0;
#X connect 87 0 89 0;
#X connect 88 0 89 0;
#X connect 90 0 84 0;
#X connect 90 1 85 0;
#X connect 90 2 86 0;
#X connect 90 3 87 0;
#X connect 90 4 88 0;
#X connect 90 5 91 0;
#X connect 90 6 92 0;
#X connect 91 0 89 0;
#X connect 92 0 89 0;
