#N canvas 344 39 821 876 10;
#X obj 15 39 r s_preset_1;
#X obj 49 159 select 1 2 3 4;
#X msg 49 188 read preset1.txt;
#X msg 69 212 read preset2.txt;
#X msg 89 239 read preset3.txt;
#X msg 109 265 read preset4.txt;
#X obj 15 331 qlist;
#X text 13 5 Read: Buttons 1-4 lesen das jeweilige Preset \, Button
0 ist "kein Preset", f 40;
#X obj 245 612 bng 15 250 50 0 empty empty empty 17 7 0 10 -262144
-1 -1;
#X text 13 456 Write: ein Bang an save_presets speichert die Werte
in das aktuelle Textfile.;
#X obj 14 495 r s_preset_1;
#X obj 14 529 select 1 2 3 4;
#X symbolatom 16 690 12 0 0 0 - - -, f 12;
#X msg 14 567 set preset1.txt;
#X msg 35 591 set preset2.txt;
#X msg 55 618 set preset3.txt;
#X msg 75 644 set preset4.txt;
#X obj 216 1051 textfile;
#X msg 216 1018 clear;
#X obj 275 808 r get_values;
#X obj 275 758 s get_all;
#X obj 294 894 s;
#X obj 273 958 list;
#X obj 275 837 t a b a;
#X obj 43 750 prepent write;
#X obj 273 1017 prepent add;
#X obj 314 495 r s_preset_1;
#X msg 244 668 1;
#X msg 307 667 0;
#X obj 316 699 s saving_preset;
#X text 275 776 Zu presets_r_s.pd \, löst Message-Flut von receive-Namen
an get_values aus:, f 39;
#X obj 245 495 r value;
#X obj 314 868 symbol;
#X obj 122 529 loadbang;
#X obj 294 930 r value;
#X obj 245 557 bng 15 250 50 0 empty empty empty 17 7 0 10 -262144
-1 -1;
#X text 325 579 Auto-Save nach 5 Sekunden \, wenn ein Preset aktiv
ist., f 27;
#X obj 245 584 delay 5000;
#X obj 15 65 t a a;
#X obj 15 91 spigot 0;
#X obj 267 126 r r_speedlim;
#X obj 222 238 /;
#X obj 222 182 t b a;
#X text 307 959 z.B. r_val_1 0.09 \;;
#X msg 222 265 tempo \$1;
#X msg 94 357 0;
#X msg 42 357 1;
#X msg 222 211 100;
#X obj 222 157 float 40;
#X obj 15 119 t b b a b;
#X text 123 354 Triggern von Speichern beim Laden unterbinden, f 22
;
#X text 250 212 100ms der qlist auf speedlim umrechnen;
#X obj 244 639 t b b b b b;
#X text 361 865 Send-Symbol setzen \, Bang dorthin \, value kommt in
die Liste \, Symbol voransetzen und zum textfile hinzufügen., f 46
;
#X obj 273 987 list prepend 100;
#X obj 303 7 hradio 15 1 0 5 empty empty empty 0 -8 0 10 -262144 -1
-1 1;
#X obj 42 384 s loading_preset;
#X obj 408 495 r loading_preset;
#X obj 307 723 s loading_preset;
#X text 416 701 Bulbs-Output und LFO stoppen bei save.;
#X text 415 723 Rekursives Auslösen des Auto-Save Delays auch unterbinden.
, f 38;
#X obj 15 1050 print saved;
#X obj 15 1014 list trim;
#X obj 16 717 t a a;
#X obj 245 530 spigot 0;
#X text 300 532 Beim Startup kein Preset angewählt;
#X obj 303 30 s r_preset_1;
#X text 382 8 Preset direkt hier anwählen;
#X obj 595 554 localgui;
#X text 573 527 TODO: enable presets on server;
#X connect 0 0 38 0;
#X connect 1 0 2 0;
#X connect 1 1 3 0;
#X connect 1 2 4 0;
#X connect 1 3 5 0;
#X connect 2 0 6 0;
#X connect 3 0 6 0;
#X connect 4 0 6 0;
#X connect 5 0 6 0;
#X connect 6 1 46 0;
#X connect 8 0 52 0;
#X connect 10 0 11 0;
#X connect 11 0 13 0;
#X connect 11 1 14 0;
#X connect 11 2 15 0;
#X connect 11 3 16 0;
#X connect 12 0 63 0;
#X connect 13 0 12 0;
#X connect 14 0 12 0;
#X connect 15 0 12 0;
#X connect 16 0 12 0;
#X connect 18 0 17 0;
#X connect 19 0 23 0;
#X connect 22 0 54 0;
#X connect 23 0 22 0;
#X connect 23 1 21 0;
#X connect 23 2 32 0;
#X connect 24 0 17 0;
#X connect 25 0 17 0;
#X connect 26 0 64 1;
#X connect 27 0 29 0;
#X connect 27 0 58 0;
#X connect 28 0 29 0;
#X connect 28 0 58 0;
#X connect 31 0 64 0;
#X connect 32 0 21 1;
#X connect 33 0 13 0;
#X connect 34 0 22 1;
#X connect 35 0 37 0;
#X connect 37 0 8 0;
#X connect 38 0 39 0;
#X connect 38 1 39 1;
#X connect 39 0 49 0;
#X connect 40 0 48 1;
#X connect 41 0 44 0;
#X connect 42 0 47 0;
#X connect 42 1 41 1;
#X connect 44 0 6 0;
#X connect 45 0 56 0;
#X connect 46 0 56 0;
#X connect 47 0 41 0;
#X connect 48 0 42 0;
#X connect 49 0 6 0;
#X connect 49 1 48 0;
#X connect 49 2 1 0;
#X connect 49 3 45 0;
#X connect 52 0 27 0;
#X connect 52 1 12 0;
#X connect 52 2 20 0;
#X connect 52 3 18 0;
#X connect 52 4 28 0;
#X connect 54 0 25 0;
#X connect 55 0 66 0;
#X connect 57 0 64 1;
#X connect 62 0 61 0;
#X connect 63 0 62 0;
#X connect 63 1 24 0;
#X connect 64 0 68 0;
#X connect 68 0 35 0;
