#N canvas 165 351 604 440 10;
#X obj 16 34 inlet;
#X text 13 287 signal;
#X obj 16 67 route feedback;
#X obj 16 267 outlet;
#X text 13 8 signal;
#X obj 86 269 outlet;
#X text 86 289 gate;
#X msg 120 221 0;
#X msg 86 222 1;
#X obj 86 192 delay 300;
#X obj 67 147 t a b b;
#X obj 67 111 speedlim 200;
#X obj 136 70 r speedlim;
#X text 215 67 Speed-Limit per Regler \, nicht global \, explizite
feedback-message oder LFO triggert nicht das speedlim., f 36;
#X text 220 167 Receive mit Feedback-Gate-Message \, d.h. vor dem Senden
wird das entsprechende feedback-send sg geschlossen. delay 300 ist
ein pragmatischer Wert \, d.h. die Zeit \, von der der Finger einen
Slider loslässt \, bis dieser wieder auf feedback reagiert., f 35
;
#X connect 0 0 2 0;
#X connect 2 0 3 0;
#X connect 2 1 11 0;
#X connect 7 0 5 0;
#X connect 8 0 5 0;
#X connect 9 0 8 0;
#X connect 10 0 3 0;
#X connect 10 1 9 0;
#X connect 10 2 7 0;
#X connect 11 0 10 0;
#X connect 12 0 11 1;
