#N canvas 381 379 450 300 10;
#X obj 177 81 loadbang;
#X obj 23 58 inlet;
#X obj 23 167 outlet;
#X obj 23 145 expr (($f1 - $f2) / ($f3 - $f2) * ($f5 - $f4)) + $f4
;
#X obj 80 109 float \$1;
#X obj 145 109 float \$2;
#X obj 213 109 float \$3;
#X obj 289 109 float \$4;
#X obj 100 59 inlet;
#X obj 177 59 inlet;
#X obj 255 59 inlet;
#X obj 332 59 inlet;
#X text 24 26 Skaliert den Eingangswertebereich \$1-\$2 auf \$3-\$4
;
#X text 24 7 Max/MSP scale;
#X connect 0 0 4 0;
#X connect 0 0 5 0;
#X connect 0 0 6 0;
#X connect 0 0 7 0;
#X connect 1 0 3 0;
#X connect 3 0 2 0;
#X connect 4 0 3 1;
#X connect 5 0 3 2;
#X connect 6 0 3 3;
#X connect 7 0 3 4;
#X connect 8 0 3 1;
#X connect 9 0 3 2;
#X connect 10 0 3 3;
#X connect 11 0 3 4;
