#N canvas 641 380 602 351 10;
#X obj 15 36 inlet;
#X text 15 6 signal;
#X obj 15 68 prepent feedback;
#X obj 132 36 loadbang;
#X obj 132 68 symbol \$1;
#X text 204 6 Send mit zus채tzlichem feedback-Pr채fix \, um im rg von
bulbs_r_s.pd das Schliessen des Feedback-Gate zu unterdr체cken. F체r
LFO-AUtomation und GET-Requests., f 23;
#X obj 15 100 send;
#X connect 0 0 2 0;
#X connect 2 0 6 0;
#X connect 3 0 4 0;
#X connect 4 0 6 1;
