#N canvas 641 380 602 351 10;
#X obj 18 32 inlet;
#X text 15 6 signal;
#X obj 17 64 prepent feedback;
#X obj 147 31 loadbang;
#X obj 147 63 symbol \$1;
#X obj 17 96 send \$1;
#X text 218 2 Send mit zus채tzlichem feedback-Pr채fix \, um in sd das
Schliessen des Feedback-Gate zu unterdr체cken. F체r LFO-AUtomation
und GET-Requests., f 23;
#X connect 0 0 2 0;
#X connect 2 0 5 0;
#X connect 3 0 4 0;
#X connect 4 0 5 1;
