#N canvas 80 260 307 249 10;
#X obj 20 44 inlet;
#X obj 120 45 loadbang;
#X msg 50 73 1, f 2;
#X msg 81 73 0, f 2;
#X obj 121 211 outlet;
#X obj 20 149 t bang anything;
#X obj 20 111 spigot 1;
#X obj 20 187 delay 1000;
#X obj 120 83 float \$1;
#X obj 216 46 inlet;
#X text 15 8 Max/MSP speedlim;
#X connect 0 0 6 0;
#X connect 1 0 8 0;
#X connect 2 0 6 1;
#X connect 3 0 6 1;
#X connect 5 0 3 0;
#X connect 5 0 7 0;
#X connect 5 1 4 0;
#X connect 6 0 5 0;
#X connect 7 0 2 0;
#X connect 8 0 7 1;
#X connect 9 0 7 1;
