#N canvas 573 500 666 243 10;
#X obj 149 21 inlet;
#X obj 262 20 inlet;
#X obj 76 140 spigot 0;
#X obj 142 140 spigot 0;
#X obj 274 139 spigot 0;
#X obj 208 140 spigot 0;
#X obj 107 103 == 1;
#X obj 168 103 == 2;
#X obj 237 104 == 3;
#X obj 303 104 == 4;
#X obj 76 177 outlet;
#X obj 142 177 outlet;
#X obj 209 176 outlet;
#X obj 274 178 outlet;
#X text 5 10 Rechtes Inlet 1..4 leitet das Signal an das jeweilige
Outlet.;
#X connect 0 0 2 0;
#X connect 0 0 3 0;
#X connect 0 0 4 0;
#X connect 0 0 5 0;
#X connect 1 0 9 0;
#X connect 1 0 8 0;
#X connect 1 0 7 0;
#X connect 1 0 6 0;
#X connect 2 0 10 0;
#X connect 3 0 11 0;
#X connect 4 0 13 0;
#X connect 5 0 12 0;
#X connect 6 0 2 1;
#X connect 7 0 3 1;
#X connect 8 0 5 1;
#X connect 9 0 4 1;
