#N canvas 255 405 666 243 10;
#X obj 13 163 spigot 0;
#X obj 205 43 inlet;
#X obj 372 46 inlet;
#X obj 81 163 spigot 0;
#X obj 147 163 spigot 0;
#X obj 279 162 spigot 0;
#X obj 213 163 spigot 0;
#X obj 347 162 spigot 0;
#X obj 412 162 spigot 0;
#X obj 479 163 spigot 0;
#X obj 12 200 outlet;
#X obj 81 200 outlet;
#X obj 147 200 outlet;
#X obj 214 199 outlet;
#X obj 279 201 outlet;
#X obj 349 199 outlet;
#X obj 412 199 outlet;
#X obj 480 198 outlet;
#X obj 42 124 == 1;
#X obj 112 126 == 2;
#X obj 173 126 == 3;
#X obj 242 127 == 4;
#X obj 308 127 == 5;
#X obj 376 125 == 6;
#X obj 437 125 == 7;
#X obj 508 125 == 8;
#X text 10 9 Rechtes Inlet 1..8 leitet das Signal am linken Inlet an
das jeweilige Outlet., f 90;
#X connect 0 0 10 0;
#X connect 1 0 0 0;
#X connect 1 0 3 0;
#X connect 1 0 4 0;
#X connect 1 0 7 0;
#X connect 1 0 5 0;
#X connect 1 0 8 0;
#X connect 1 0 9 0;
#X connect 1 0 6 0;
#X connect 2 0 18 0;
#X connect 2 0 19 0;
#X connect 2 0 20 0;
#X connect 2 0 21 0;
#X connect 2 0 22 0;
#X connect 2 0 23 0;
#X connect 2 0 24 0;
#X connect 2 0 25 0;
#X connect 3 0 11 0;
#X connect 4 0 12 0;
#X connect 5 0 14 0;
#X connect 6 0 13 0;
#X connect 7 0 15 0;
#X connect 8 0 16 0;
#X connect 9 0 17 0;
#X connect 18 0 0 1;
#X connect 19 0 3 1;
#X connect 20 0 4 1;
#X connect 21 0 6 1;
#X connect 22 0 5 1;
#X connect 23 0 7 1;
#X connect 24 0 8 1;
#X connect 25 0 9 1;
