#N canvas 412 402 469 426 10;
#X obj 119 38 inlet;
#X text 117 17 LFO-Signal;
#X obj 223 39 inlet;
#X obj 70 99 spigot8, f 26;
#X obj 240 100 spigot8, f 26;
#X obj 392 39 inlet;
#X text 200 18 Gate 1..8;
#X text 368 18 Gate 1..8;
#X obj 20 170 sf r_on_1;
#X obj 60 193 sf r_hue_1;
#X obj 103 214 sf r_sat_1;
#X obj 154 236 sf r_val_1;
#X obj 20 309 sf r_on_1;
#X obj 59 333 sf r_hue_1;
#X obj 102 354 sf r_sat_1;
#X obj 153 376 sf r_val_1;
#X obj 186 171 sf r_on_2;
#X obj 223 195 sf r_hue_2;
#X obj 264 216 sf r_sat_2;
#X obj 253 309 sf r_on_2;
#X obj 309 238 sf r_val_2;
#X obj 290 333 sf r_hue_2;
#X obj 331 354 sf r_sat_2;
#X obj 376 376 sf r_val_2;
#X obj 20 142 >= 0.5;
#X obj 186 146 >= 0.5;
#X obj 20 280 >= 0.5;
#X obj 253 282 >= 0.5;
#X text 8 12 Routing des LFO-Signals an die Regler 1-4 der einzelnen
Bulbs, f 16;
#X connect 0 0 3 0;
#X connect 0 0 4 0;
#X connect 2 0 3 1;
#X connect 3 0 24 0;
#X connect 3 1 9 0;
#X connect 3 2 10 0;
#X connect 3 3 11 0;
#X connect 3 4 25 0;
#X connect 3 5 17 0;
#X connect 3 6 18 0;
#X connect 3 7 20 0;
#X connect 4 0 26 0;
#X connect 4 1 13 0;
#X connect 4 2 14 0;
#X connect 4 3 15 0;
#X connect 4 4 27 0;
#X connect 4 5 21 0;
#X connect 4 6 22 0;
#X connect 4 7 23 0;
#X connect 5 0 4 1;
#X connect 24 0 8 0;
#X connect 25 0 16 0;
#X connect 26 0 12 0;
#X connect 27 0 19 0;
