#N canvas 847 411 313 432 10;
#X obj 37 132 t b b b;
#X msg 39 295 disconnect;
#X obj 77 351 netsend;
#X obj 57 207 float 0;
#X obj 128 207 + 1;
#X obj 57 234 list prepend send;
#X obj 57 264 list trim;
#X msg 93 34 stop;
#X msg 37 33 bang;
#X obj 138 378 == 0;
#X obj 38 97 spigot 1;
#X text 103 96 sync lock;
#X obj 36 5 loadbang;
#X msg 77 170 connect 192.168.1.150 8181;
#X obj 37 64 metro 1;
#X text 103 66 aim for 1000 requests/s;
#X connect 0 0 1 0;
#X connect 0 1 3 0;
#X connect 0 2 13 0;
#X connect 1 0 2 0;
#X connect 2 0 9 0;
#X connect 3 0 4 0;
#X connect 3 0 5 0;
#X connect 4 0 3 1;
#X connect 5 0 6 0;
#X connect 6 0 2 0;
#X connect 7 0 14 0;
#X connect 8 0 14 0;
#X connect 9 0 10 1;
#X connect 10 0 0 0;
#X connect 12 0 8 0;
#X connect 13 0 2 0;
#X connect 14 0 10 0;
